  0
SECTION
  2
HEADER
  9
$ACADVER
  1
AC1032
  9
$ACADMAINTVER
 90
       55
  9
$DWGCODEPAGE
  3
ANSI_1254
  9
$LASTSAVEDBY
  1
lamasat
  9
$REQUIREDVERSIONS
160
                 0
  9
$INSBASE
 10
0.0
 20
0.0
 30
0.0
  9
$EXTMIN
 10
-2505.4956
 20
-1148.4819
 30
0.0
  9
$EXTMAX
 10
-1014.4703
 20
-496.3333
 30
0.0
  9
$LIMMIN
 10
0.0
 20
0.0
  9
$LIMMAX
 10
12.0
 20
9.0
  9
$ORTHOMODE
 70
     0
  9
$REGENMODE
 70
     1
  9
$FILLMODE
 70
     1
  9
$QTEXTMODE
 70
     0
  9
$MIRRTEXT
 70
     1
  9
$LTSCALE
 40
1.0
  9
$ATTMODE
 70
     1
  9
$TEXTSIZE
 40
0.2
  9
$TRACEWID
 40
0.05
  9
$TEXTSTYLE
  7
Standard
  9
$CLAYER
  8
0
  9
$CELTYPE
  6
ByLayer
  9
$CECOLOR
 62
   256
  9
$CELTSCALE
 40
1.0
  9
$DISPSILH
 70
     0
  9
$DIMSCALE
 40
1.0
  9
$DIMASZ
 40
0.18
  9
$DIMEXO
 40
0.0625
  9
$DIMDLI
 40
0.38
  9
$DIMRND
 40
0.0
  9
$DIMDLE
 40
0.0
  9
$DIMEXE
 40
0.18
  9
$DIMTP
 40
0.0
  9
$DIMTM
 40
0.0
  9
$DIMTXT
 40
0.18
  9
$DIMCEN
 40
0.09
  9
$DIMTSZ
 40
0.0
  9
$DIMTOL
 70
     0
  9
$DIMLIM
 70
     0
  9
$DIMTIH
 70
     1
  9
$DIMTOH
 70
     1
  9
$DIMSE1
 70
     0
  9
$DIMSE2
 70
     0
  9
$DIMTAD
 70
     0
  9
$DIMZIN
 70
     0
  9
$DIMBLK
  1

  9
$DIMASO
 70
     1
  9
$DIMSHO
 70
     1
  9
$DIMPOST
  1

  9
$DIMAPOST
  1

  9
$DIMALT
 70
     0
  9
$DIMALTD
 70
     2
  9
$DIMALTF
 40
25.4
  9
$DIMLFAC
 40
1.0
  9
$DIMTOFL
 70
     0
  9
$DIMTVP
 40
0.0
  9
$DIMTIX
 70
     0
  9
$DIMSOXD
 70
     0
  9
$DIMSAH
 70
     0
  9
$DIMBLK1
  1

  9
$DIMBLK2
  1

  9
$DIMSTYLE
  2
Standard
  9
$DIMCLRD
 70
     0
  9
$DIMCLRE
 70
     0
  9
$DIMCLRT
 70
     0
  9
$DIMTFAC
 40
1.0
  9
$DIMGAP
 40
0.09
  9
$DIMJUST
 70
     0
  9
$DIMSD1
 70
     0
  9
$DIMSD2
 70
     0
  9
$DIMTOLJ
 70
     1
  9
$DIMTZIN
 70
     0
  9
$DIMALTZ
 70
     0
  9
$DIMALTTZ
 70
     0
  9
$DIMUPT
 70
     0
  9
$DIMDEC
 70
     4
  9
$DIMTDEC
 70
     4
  9
$DIMALTU
 70
     2
  9
$DIMALTTD
 70
     2
  9
$DIMTXSTY
  7
Standard
  9
$DIMAUNIT
 70
     0
  9
$DIMADEC
 70
     0
  9
$DIMALTRND
 40
0.0
  9
$DIMAZIN
 70
     0
  9
$DIMDSEP
 70
    46
  9
$DIMATFIT
 70
     3
  9
$DIMFRAC
 70
     0
  9
$DIMLDRBLK
  1

  9
$DIMLUNIT
 70
     2
  9
$DIMLWD
 70
    -2
  9
$DIMLWE
 70
    -2
  9
$DIMTMOVE
 70
     0
  9
$DIMFXL
 40
1.0
  9
$DIMFXLON
 70
     0
  9
$DIMJOGANG
 40
0.7853981633974483
  9
$DIMTFILL
 70
     0
  9
$DIMTFILLCLR
 70
     0
  9
$DIMARCSYM
 70
     0
  9
$DIMLTYPE
  6

  9
$DIMLTEX1
  6

  9
$DIMLTEX2
  6

  9
$DIMTXTDIRECTION
 70
     0
  9
$LUNITS
 70
     2
  9
$LUPREC
 70
     4
  9
$SKETCHINC
 40
0.1
  9
$FILLETRAD
 40
0.0
  9
$AUNITS
 70
     0
  9
$AUPREC
 70
     0
  9
$MENU
  1
.
  9
$ELEVATION
 40
0.0
  9
$PELEVATION
 40
0.0
  9
$THICKNESS
 40
0.0
  9
$LIMCHECK
 70
     0
  9
$CHAMFERA
 40
0.0
  9
$CHAMFERB
 40
0.0
  9
$CHAMFERC
 40
0.0
  9
$CHAMFERD
 40
0.0
  9
$SKPOLY
 70
     0
  9
$TDCREATE
 40
2461316.477249456
  9
$TDUCREATE
 40
2461316.352249456
  9
$TDUPDATE
 40
2461316.477249502
  9
$TDUUPDATE
 40
2461316.352249502
  9
$TDINDWG
 40
0.0000000116
  9
$TDUSRTIMER
 40
0.0000000116
  9
$USRTIMER
 70
     1
  9
$ANGBASE
 50
0.0
  9
$ANGDIR
 70
     0
  9
$PDMODE
 70
     0
  9
$PDSIZE
 40
0.0
  9
$PLINEWID
 40
0.0
  9
$SPLFRAME
 70
     0
  9
$SPLINETYPE
 70
     6
  9
$SPLINESEGS
 70
     8
  9
$HANDSEED
  5
89
  9
$SURFTAB1
 70
     6
  9
$SURFTAB2
 70
     6
  9
$SURFTYPE
 70
     6
  9
$SURFU
 70
     6
  9
$SURFV
 70
     6
  9
$UCSBASE
  2

  9
$UCSNAME
  2

  9
$UCSORG
 10
0.0
 20
0.0
 30
0.0
  9
$UCSXDIR
 10
1.0
 20
0.0
 30
0.0
  9
$UCSYDIR
 10
0.0
 20
1.0
 30
0.0
  9
$UCSORTHOREF
  2

  9
$UCSORTHOVIEW
 70
     0
  9
$UCSORGTOP
 10
0.0
 20
0.0
 30
0.0
  9
$UCSORGBOTTOM
 10
0.0
 20
0.0
 30
0.0
  9
$UCSORGLEFT
 10
0.0
 20
0.0
 30
0.0
  9
$UCSORGRIGHT
 10
0.0
 20
0.0
 30
0.0
  9
$UCSORGFRONT
 10
0.0
 20
0.0
 30
0.0
  9
$UCSORGBACK
 10
0.0
 20
0.0
 30
0.0
  9
$PUCSBASE
  2

  9
$PUCSNAME
  2

  9
$PUCSORG
 10
0.0
 20
0.0
 30
0.0
  9
$PUCSXDIR
 10
1.0
 20
0.0
 30
0.0
  9
$PUCSYDIR
 10
0.0
 20
1.0
 30
0.0
  9
$PUCSORTHOREF
  2

  9
$PUCSORTHOVIEW
 70
     0
  9
$PUCSORGTOP
 10
0.0
 20
0.0
 30
0.0
  9
$PUCSORGBOTTOM
 10
0.0
 20
0.0
 30
0.0
  9
$PUCSORGLEFT
 10
0.0
 20
0.0
 30
0.0
  9
$PUCSORGRIGHT
 10
0.0
 20
0.0
 30
0.0
  9
$PUCSORGFRONT
 10
0.0
 20
0.0
 30
0.0
  9
$PUCSORGBACK
 10
0.0
 20
0.0
 30
0.0
  9
$USERI1
 70
     0
  9
$USERI2
 70
     0
  9
$USERI3
 70
     0
  9
$USERI4
 70
     0
  9
$USERI5
 70
     0
  9
$USERR1
 40
0.0
  9
$USERR2
 40
0.0
  9
$USERR3
 40
0.0
  9
$USERR4
 40
0.0
  9
$USERR5
 40
0.0
  9
$WORLDVIEW
 70
     1
  9
$SHADEDGE
 70
     3
  9
$SHADEDIF
 70
    70
  9
$TILEMODE
 70
     1
  9
$MAXACTVP
 70
    64
  9
$PINSBASE
 10
0.0
 20
0.0
 30
0.0
  9
$PLIMCHECK
 70
     0
  9
$PEXTMIN
 10
1.000000000000000E+20
 20
1.000000000000000E+20
 30
1.000000000000000E+20
  9
$PEXTMAX
 10
-1.000000000000000E+20
 20
-1.000000000000000E+20
 30
-1.000000000000000E+20
  9
$PLIMMIN
 10
0.0
 20
0.0
  9
$PLIMMAX
 10
12.0
 20
9.0
  9
$UNITMODE
 70
     0
  9
$VISRETAIN
 70
     1
  9
$PLINEGEN
 70
     0
  9
$PSLTSCALE
 70
     1
  9
$TREEDEPTH
 70
  3020
  9
$CMLSTYLE
  2
Standard
  9
$CMLJUST
 70
     0
  9
$CMLSCALE
 40
1.0
  9
$PROXYGRAPHICS
 70
     1
  9
$MEASUREMENT
 70
     0
  9
$CELWEIGHT
370
    -1
  9
$ENDCAPS
280
     0
  9
$JOINSTYLE
280
     0
  9
$LWDISPLAY
290
     0
  9
$INSUNITS
 70
     4
  9
$HYPERLINKBASE
  1

  9
$STYLESHEET
  1

  9
$XEDIT
290
     1
  9
$CEPSNTYPE
380
     0
  9
$PSTYLEMODE
290
     1
  9
$FINGERPRINTGUID
  2
{8f41a13b-3f31-4f5a-83d2-449c780389e7}
  9
$VERSIONGUID
  2
{FAEB1C32-E019-11D5-929B-00C0DF256EC4}
  9
$EXTNAMES
290
     1
  9
$PSVPSCALE
 40
0.0
  9
$OLESTARTUP
290
     0
  9
$SORTENTS
280
   127
  9
$INDEXCTL
280
     0
  9
$HIDETEXT
280
     1
  9
$XCLIPFRAME
280
     2
  9
$HALOGAP
280
     0
  9
$OBSCOLOR
 70
   257
  9
$OBSLTYPE
280
     0
  9
$INTERSECTIONDISPLAY
280
     0
  9
$INTERSECTIONCOLOR
 70
   257
  9
$DIMASSOC
280
     2
  9
$PROJECTNAME
  1

  9
$CAMERADISPLAY
290
     0
  9
$LENSLENGTH
 40
50.0
  9
$CAMERAHEIGHT
 40
0.0
  9
$STEPSPERSEC
 40
2.0
  9
$STEPSIZE
 40
6.0
  9
$3DDWFPREC
 40
2.0
  9
$PSOLWIDTH
 40
0.25
  9
$PSOLHEIGHT
 40
4.0
  9
$LOFTANG1
 40
1.570796326794897
  9
$LOFTANG2
 40
1.570796326794897
  9
$LOFTMAG1
 40
0.0
  9
$LOFTMAG2
 40
0.0
  9
$LOFTPARAM
 70
     7
  9
$LOFTNORMALS
280
     1
  9
$LATITUDE
 40
37.795
  9
$LONGITUDE
 40
-122.394
  9
$NORTHDIRECTION
 40
0.0
  9
$TIMEZONE
 70
 -8000
  9
$LIGHTGLYPHDISPLAY
280
     1
  9
$TILEMODELIGHTSYNCH
280
     1
  9
$CMATERIAL
347
44
  9
$SOLIDHIST
280
     0
  9
$SHOWHIST
280
     1
  9
$DWFFRAME
280
     2
  9
$DGNFRAME
280
     2
  9
$REALWORLDSCALE
290
     1
  9
$INTERFERECOLOR
 62
   256
  9
$CSHADOW
280
     0
  9
$SHADOWPLANELOCATION
 40
0.0
  0
ENDSEC
  0
SECTION
  2
CLASSES
  0
CLASS
  1
ACDBDICTIONARYWDFLT
  2
AcDbDictionaryWithDefault
  3
ObjectDBX Classes
 90
        0
 91
        3
280
     0
281
     0
  0
CLASS
  1
VISUALSTYLE
  2
AcDbVisualStyle
  3
ObjectDBX Classes
 90
     4095
 91
        3
280
     0
281
     0
  0
CLASS
  1
MATERIAL
  2
AcDbMaterial
  3
ObjectDBX Classes
 90
     1153
 91
        3
280
     0
281
     0
  0
CLASS
  1
SCALE
  2
AcDbScale
  3
ObjectDBX Classes
 90
     1153
 91
        3
280
     0
281
     0
  0
CLASS
  1
TABLESTYLE
  2
AcDbTableStyle
  3
ObjectDBX Classes
 90
     4095
 91
        3
280
     0
281
     0
  0
CLASS
  1
MLEADERSTYLE
  2
AcDbMLeaderStyle
  3
ACDB_MLEADERSTYLE_CLASS
 90
     4095
 91
        3
280
     0
281
     0
  0
CLASS
  1
SUN
  2
AcDbSun
  3
SCENEOE
 90
     1153
 91
        3
280
     0
281
     0
  0
CLASS
  1
DICTIONARYVAR
  2
AcDbDictionaryVar
  3
ObjectDBX Classes
 90
        0
 91
        3
280
     0
281
     0
  0
CLASS
  1
CELLSTYLEMAP
  2
AcDbCellStyleMap
  3
ObjectDBX Classes
 90
     1152
 91
        3
280
     0
281
     0
  0
ENDSEC
  0
SECTION
  2
TABLES
  0
TABLE
  2
VPORT
  5
8
330
0
100
AcDbSymbolTable
 70
     1
  0
VPORT
  5
29
330
8
100
AcDbSymbolTableRecord
100
AcDbViewportTableRecord
  2
*Active
 70
     0
 10
0.0
 20
0.0
 11
1.0
 21
1.0
 12
10.42990654205607
 22
4.5
 13
0.0
 23
0.0
 14
0.5
 24
0.5
 15
0.5
 25
0.5
 16
0.0
 26
0.0
 36
1.0
 17
0.0
 27
0.0
 37
0.0
 40
9.0
 41
1.972972972850329
 42
50.0
 43
0.0
 44
0.0
 50
0.0
 51
0.0
 71
     0
 72
   100
 73
     1
 74
     3
 75
     0
 76
     0
 77
     0
 78
     0
281
     0
 65
     1
110
0.0
120
0.0
130
0.0
111
1.0
121
0.0
131
0.0
112
0.0
122
1.0
132
0.0
 79
     0
146
0.0
348
2F
 60
     3
 61
     5
292
     1
282
     1
141
0.0
142
0.0
 63
   250
361
5D
  0
ENDTAB
  0
TABLE
  2
LTYPE
  5
5
330
0
100
AcDbSymbolTable
 70
     1
  0
LTYPE
  5
14
330
5
100
AcDbSymbolTableRecord
100
AcDbLinetypeTableRecord
  2
ByBlock
 70
     0
  3

 72
    65
 73
     0
 40
0.0
  0
LTYPE
  5
15
330
5
100
AcDbSymbolTableRecord
100
AcDbLinetypeTableRecord
  2
ByLayer
 70
     0
  3

 72
    65
 73
     0
 40
0.0
  0
LTYPE
  5
16
330
5
100
AcDbSymbolTableRecord
100
AcDbLinetypeTableRecord
  2
Continuous
 70
     0
  3
Solid line
 72
    65
 73
     0
 40
0.0
  0
ENDTAB
  0
TABLE
  2
LAYER
  5
2
330
0
100
AcDbSymbolTable
 70
     2
  0
LAYER
  5
10
330
2
100
AcDbSymbolTableRecord
100
AcDbLayerTableRecord
  2
0
 70
     0
 62
     7
  6
Continuous
370
    -3
390
F
347
46
348
0
  0
LAYER
  5
5F
330
2
100
AcDbSymbolTableRecord
100
AcDbLayerTableRecord
  2
Layer 1
 70
     0
 62
     7
  6
Continuous
370
    -3
390
F
347
46
348
0
  0
ENDTAB
  0
TABLE
  2
STYLE
  5
3
330
0
100
AcDbSymbolTable
 70
     1
  0
STYLE
  5
11
330
3
100
AcDbSymbolTableRecord
100
AcDbTextStyleTableRecord
  2
Standard
 70
     0
 40
0.0
 41
1.0
 50
0.0
 71
     0
 42
0.2
  3
txt
  4

  0
ENDTAB
  0
TABLE
  2
VIEW
  5
6
330
0
100
AcDbSymbolTable
 70
     0
  0
ENDTAB
  0
TABLE
  2
UCS
  5
7
330
0
100
AcDbSymbolTable
 70
     0
  0
ENDTAB
  0
TABLE
  2
APPID
  5
9
330
0
100
AcDbSymbolTable
 70
     2
  0
APPID
  5
12
330
9
100
AcDbSymbolTableRecord
100
AcDbRegAppTableRecord
  2
ACAD
 70
     0
  0
APPID
  5
5E
330
9
100
AcDbSymbolTableRecord
100
AcDbRegAppTableRecord
  2
ODA
 70
     0
  0
ENDTAB
  0
TABLE
  2
DIMSTYLE
  5
A
330
0
100
AcDbSymbolTable
 70
     1
100
AcDbDimStyleTable
  0
DIMSTYLE
105
27
330
A
100
AcDbSymbolTableRecord
100
AcDbDimStyleTableRecord
  2
Standard
 70
     0
178
     0
340
11
  0
ENDTAB
  0
TABLE
  2
BLOCK_RECORD
  5
1
330
0
100
AcDbSymbolTable
 70
     1
  0
BLOCK_RECORD
  5
1F
330
1
100
AcDbSymbolTableRecord
100
AcDbBlockTableRecord
  2
*Model_Space
340
22
 70
     0
280
     1
281
     0
  0
BLOCK_RECORD
  5
1B
330
1
100
AcDbSymbolTableRecord
100
AcDbBlockTableRecord
  2
*Paper_Space
340
1E
 70
     0
280
     1
281
     0
  0
BLOCK_RECORD
  5
23
330
1
100
AcDbSymbolTableRecord
100
AcDbBlockTableRecord
  2
*Paper_Space0
340
26
 70
     0
280
     1
281
     0
  0
ENDTAB
  0
ENDSEC
  0
SECTION
  2
BLOCKS
  0
BLOCK
  5
20
330
1F
100
AcDbEntity
  8
0
100
AcDbBlockBegin
  2
*Model_Space
 70
     0
 10
0.0
 20
0.0
 30
0.0
  3
*Model_Space
  1

  0
ENDBLK
  5
21
330
1F
100
AcDbEntity
  8
0
100
AcDbBlockEnd
  0
BLOCK
  5
1C
330
1B
100
AcDbEntity
 67
     1
  8
0
100
AcDbBlockBegin
  2
*Paper_Space
 70
     0
 10
0.0
 20
0.0
 30
0.0
  3
*Paper_Space
  1

  0
ENDBLK
  5
1D
330
1B
100
AcDbEntity
 67
     1
  8
0
100
AcDbBlockEnd
  0
BLOCK
  5
24
330
23
100
AcDbEntity
  8
0
100
AcDbBlockBegin
  2
*Paper_Space0
 70
     0
 10
0.0
 20
0.0
 30
0.0
  3
*Paper_Space0
  1

  0
ENDBLK
  5
25
330
23
100
AcDbEntity
  8
0
100
AcDbBlockEnd
  0
ENDSEC
  0
SECTION
  2
ENTITIES
  0
SPLINE
  5
60
330
1F
100
AcDbEntity
  8
Layer 1
 62
   250
370
    20
100
AcDbSpline
210
0.0
220
0.0
230
1.0
 70
    11
 71
     3
 72
    44
 73
    40
 74
     0
 42
0.0000000001
 43
0.0000000001
 40
0.0
 40
0.0
 40
0.0
 40
0.0
 40
0.0769230769230769
 40
0.0769230769230769
 40
0.0769230769230769
 40
0.1538461538461539
 40
0.1538461538461539
 40
0.1538461538461539
 40
0.2307692307692308
 40
0.2307692307692308
 40
0.2307692307692308
 40
0.3076923076923077
 40
0.3076923076923077
 40
0.3076923076923077
 40
0.3846153846153846
 40
0.3846153846153846
 40
0.3846153846153846
 40
0.4615384615384616
 40
0.4615384615384616
 40
0.4615384615384616
 40
0.5384615384615385
 40
0.5384615384615385
 40
0.5384615384615385
 40
0.6153846153846154
 40
0.6153846153846154
 40
0.6153846153846154
 40
0.6923076923076923
 40
0.6923076923076923
 40
0.6923076923076923
 40
0.7692307692307693
 40
0.7692307692307693
 40
0.7692307692307693
 40
0.8461538461538463
 40
0.8461538461538463
 40
0.8461538461538463
 40
0.9230769230769231
 40
0.9230769230769231
 40
0.9230769230769231
 40
1.0
 40
1.0
 40
1.0
 40
1.0
 10
-1118.3436
 20
-870.2768
 30
0.0
 10
-1112.4156
 20
-901.3799
 30
0.0
 10
-1109.5853
 20
-930.3874
 30
0.0
 10
-1109.8526
 20
-957.2994
 30
0.0
 10
-1106.4357
 20
-957.8652
 30
0.0
 10
-1103.0015
 20
-958.317
 30
0.0
 10
-1099.607
 20
-958.6367
 30
0.0
 10
-1084.9891
 20
-960.0136
 30
0.0
 10
-1074.3755
 20
-955.9675
 30
0.0
 10
-1060.7544
 20
-951.5627
 30
0.0
 10
-1053.5775
 20
-949.2418
 30
0.0
 10
-1046.4491
 20
-947.4793
 30
0.0
 10
-1038.882
 20
-947.0273
 30
0.0
 10
-1036.535
 20
-946.8871
 30
0.0
 10
-1033.9304
 20
-946.5711
 30
0.0
 10
-1031.5956
 20
-946.5787
 30
0.0
 10
-1028.8771
 20
-946.5875
 30
0.0
 10
-1025.8561
 20
-946.945
 30
0.0
 10
-1023.1291
 20
-947.1234
 30
0.0
 10
-1021.118
 20
-947.2549
 30
0.0
 10
-1019.1085
 20
-947.4266
 30
0.0
 10
-1017.1011
 20
-947.6341
 30
0.0
 10
-1016.6746
 20
-933.8936
 30
0.0
 10
-1015.9216
 20
-909.6387
 30
0.0
 10
-1014.5926
 20
-866.8233
 30
0.0
 10
-1014.9378
 20
-866.793
 30
0.0
 10
-1015.2831
 20
-866.7627
 30
0.0
 10
-1015.6283
 20
-866.7324
 30
0.0
 10
-1016.2897
 20
-858.0831
 30
0.0
 10
-1022.3408
 20
-855.3619
 30
0.0
 10
-1029.8333
 20
-853.7814
 30
0.0
 10
-1035.053
 20
-852.6803
 30
0.0
 10
-1039.9837
 20
-852.8543
 30
0.0
 10
-1044.0454
 20
-853.6741
 30
0.0
 10
-1055.8672
 20
-856.0607
 30
0.0
 10
-1057.4609
 20
-862.3657
 30
0.0
 10
-1058.833
 20
-873.5688
 30
0.0
 10
-1078.7111
 20
-872.6045
 30
0.0
 10
-1098.5523
 20
-871.5209
 30
0.0
 10
-1118.3436
 20
-870.2768
 30
0.0
  0
SPLINE
  5
61
330
1F
100
AcDbEntity
  8
Layer 1
 62
   250
370
    20
100
AcDbSpline
210
0.0
220
0.0
230
1.0
 70
    11
 71
     3
 72
    35
 73
    31
 74
     0
 42
0.0000000001
 43
0.0000000001
 40
0.0
 40
0.0
 40
0.0
 40
0.0
 40
0.1
 40
0.1
 40
0.1
 40
0.2
 40
0.2
 40
0.2
 40
0.3
 40
0.3
 40
0.3
 40
0.4
 40
0.4
 40
0.4
 40
0.5
 40
0.5
 40
0.5
 40
0.6000000000000001
 40
0.6000000000000001
 40
0.6000000000000001
 40
0.7000000000000001
 40
0.7000000000000001
 40
0.7000000000000001
 40
0.8
 40
0.8
 40
0.8
 40
0.9
 40
0.9
 40
0.9
 40
1.0
 40
1.0
 40
1.0
 40
1.0
 10
-1031.8628
 20
-600.5984
 30
0.0
 10
-1032.3298
 20
-601.5224
 30
0.0
 10
-1032.7969
 20
-602.4464
 30
0.0
 10
-1033.264
 20
-603.3704
 30
0.0
 10
-1037.2397
 20
-611.235
 30
0.0
 10
-1041.6259
 20
-619.1819
 30
0.0
 10
-1045.3433
 20
-627.1497
 30
0.0
 10
-1049.5031
 20
-636.0655
 30
0.0
 10
-1053.1058
 20
-645.6981
 30
0.0
 10
-1056.8313
 20
-654.8156
 30
0.0
 10
-1060.1839
 20
-663.0203
 30
0.0
 10
-1063.3633
 20
-671.2976
 30
0.0
 10
-1066.3377
 20
-679.6473
 30
0.0
 10
-1069.0397
 20
-679.5523
 30
0.0
 10
-1071.7314
 20
-679.3846
 30
0.0
 10
-1074.3831
 20
-679.1406
 30
0.0
 10
-1088.4826
 20
-677.843
 30
0.0
 10
-1097.965
 20
-671.9739
 30
0.0
 10
-1110.1026
 20
-665.3675
 30
0.0
 10
-1116.9551
 20
-661.6377
 30
0.0
 10
-1123.8611
 20
-658.5013
 30
0.0
 10
-1131.4672
 20
-656.5969
 30
0.0
 10
-1138.5365
 20
-654.827
 30
0.0
 10
-1145.8056
 20
-653.7293
 30
0.0
 10
-1153.1628
 20
-653.108
 30
0.0
 10
-1154.2116
 20
-629.5095
 30
0.0
 10
-1154.9449
 20
-613.0107
 30
0.0
 10
-1155.4576
 20
-601.4755
 30
0.0
 10
-1114.5277
 20
-602.4925
 30
0.0
 10
-1072.974
 20
-600.8876
 30
0.0
 10
-1031.8628
 20
-600.5984
 30
0.0
  0
SPLINE
  5
62
330
1F
100
AcDbEntity
  8
Layer 1
 62
   250
370
    20
100
AcDbSpline
210
0.0
220
0.0
230
1.0
 70
    11
 71
     3
 72
    35
 73
    31
 74
     0
 42
0.0000000001
 43
0.0000000001
 40
0.0
 40
0.0
 40
0.0
 40
0.0
 40
0.1
 40
0.1
 40
0.1
 40
0.2
 40
0.2
 40
0.2
 40
0.3
 40
0.3
 40
0.3
 40
0.4
 40
0.4
 40
0.4
 40
0.5
 40
0.5
 40
0.5
 40
0.6000000000000001
 40
0.6000000000000001
 40
0.6000000000000001
 40
0.7000000000000001
 40
0.7000000000000001
 40
0.7000000000000001
 40
0.8
 40
0.8
 40
0.8
 40
0.9
 40
0.9
 40
0.9
 40
1.0
 40
1.0
 40
1.0
 40
1.0
 10
-1199.8297
 20
-575.4847
 30
0.0
 10
-1200.2967
 20
-574.5607
 30
0.0
 10
-1200.7638
 20
-573.6367
 30
0.0
 10
-1201.2309
 20
-572.7127
 30
0.0
 10
-1205.2066
 20
-564.8481
 30
0.0
 10
-1209.5928
 20
-556.9012
 30
0.0
 10
-1213.3102
 20
-548.9334
 30
0.0
 10
-1217.47
 20
-540.0176
 30
0.0
 10
-1221.0727
 20
-530.385
 30
0.0
 10
-1224.7982
 20
-521.2675
 30
0.0
 10
-1228.1508
 20
-513.0628
 30
0.0
 10
-1231.3302
 20
-504.7855
 30
0.0
 10
-1234.3046
 20
-496.4358
 30
0.0
 10
-1237.0066
 20
-496.5308
 30
0.0
 10
-1239.6983
 20
-496.6985
 30
0.0
 10
-1242.35
 20
-496.9425
 30
0.0
 10
-1256.4495
 20
-498.2401
 30
0.0
 10
-1265.9319
 20
-504.1092
 30
0.0
 10
-1278.0695
 20
-510.7156
 30
0.0
 10
-1284.922
 20
-514.4454
 30
0.0
 10
-1291.828
 20
-517.5818
 30
0.0
 10
-1299.4341
 20
-519.4862
 30
0.0
 10
-1306.5034
 20
-521.2561
 30
0.0
 10
-1313.7725
 20
-522.3538
 30
0.0
 10
-1321.1297
 20
-522.9751
 30
0.0
 10
-1322.1785
 20
-546.5736
 30
0.0
 10
-1322.9118
 20
-563.0724
 30
0.0
 10
-1323.4245
 20
-574.6076
 30
0.0
 10
-1282.4946
 20
-573.5906
 30
0.0
 10
-1240.9409
 20
-575.1955
 30
0.0
 10
-1199.8297
 20
-575.4847
 30
0.0
  0
SPLINE
  5
63
330
1F
100
AcDbEntity
  8
Layer 1
 62
   250
370
    20
100
AcDbSpline
210
0.0
220
0.0
230
1.0
 70
    11
 71
     3
 72
    35
 73
    31
 74
     0
 42
0.0000000001
 43
0.0000000001
 40
0.0
 40
0.0
 40
0.0
 40
0.0
 40
0.1
 40
0.1
 40
0.1
 40
0.2
 40
0.2
 40
0.2
 40
0.3
 40
0.3
 40
0.3
 40
0.4
 40
0.4
 40
0.4
 40
0.5
 40
0.5
 40
0.5
 40
0.6000000000000001
 40
0.6000000000000001
 40
0.6000000000000001
 40
0.7000000000000001
 40
0.7000000000000001
 40
0.7000000000000001
 40
0.8
 40
0.8
 40
0.8
 40
0.9
 40
0.9
 40
0.9
 40
1.0
 40
1.0
 40
1.0
 40
1.0
 10
-1194.093
 20
-600.5984
 30
0.0
 10
-1194.56
 20
-601.5224
 30
0.0
 10
-1195.0271
 20
-602.4464
 30
0.0
 10
-1195.4942
 20
-603.3704
 30
0.0
 10
-1199.4699
 20
-611.235
 30
0.0
 10
-1203.8561
 20
-619.1819
 30
0.0
 10
-1207.5735
 20
-627.1497
 30
0.0
 10
-1211.7333
 20
-636.0655
 30
0.0
 10
-1215.336
 20
-645.6981
 30
0.0
 10
-1219.0615
 20
-654.8156
 30
0.0
 10
-1222.4141
 20
-663.0203
 30
0.0
 10
-1225.5935
 20
-671.2976
 30
0.0
 10
-1228.5679
 20
-679.6473
 30
0.0
 10
-1231.2699
 20
-679.5523
 30
0.0
 10
-1233.9616
 20
-679.3846
 30
0.0
 10
-1236.6133
 20
-679.1406
 30
0.0
 10
-1250.7128
 20
-677.843
 30
0.0
 10
-1260.1952
 20
-671.9739
 30
0.0
 10
-1272.3328
 20
-665.3675
 30
0.0
 10
-1279.1853
 20
-661.6377
 30
0.0
 10
-1286.0913
 20
-658.5013
 30
0.0
 10
-1293.6974
 20
-656.5969
 30
0.0
 10
-1300.7667
 20
-654.827
 30
0.0
 10
-1308.0358
 20
-653.7293
 30
0.0
 10
-1315.393
 20
-653.108
 30
0.0
 10
-1316.4418
 20
-629.5095
 30
0.0
 10
-1317.1751
 20
-613.0107
 30
0.0
 10
-1317.6878
 20
-601.4755
 30
0.0
 10
-1276.7579
 20
-602.4925
 30
0.0
 10
-1235.2042
 20
-600.8876
 30
0.0
 10
-1194.093
 20
-600.5984
 30
0.0
  0
SPLINE
  5
64
330
1F
100
AcDbEntity
  8
Layer 1
 62
   250
370
    20
100
AcDbSpline
210
0.0
220
0.0
230
1.0
 70
    11
 71
     3
 72
    35
 73
    31
 74
     0
 42
0.0000000001
 43
0.0000000001
 40
0.0
 40
0.0
 40
0.0
 40
0.0
 40
0.1
 40
0.1
 40
0.1
 40
0.2
 40
0.2
 40
0.2
 40
0.3
 40
0.3
 40
0.3
 40
0.4
 40
0.4
 40
0.4
 40
0.5
 40
0.5
 40
0.5
 40
0.6000000000000001
 40
0.6000000000000001
 40
0.6000000000000001
 40
0.7000000000000001
 40
0.7000000000000001
 40
0.7000000000000001
 40
0.8
 40
0.8
 40
0.8
 40
0.9
 40
0.9
 40
0.9
 40
1.0
 40
1.0
 40
1.0
 40
1.0
 10
-1431.5883
 20
-575.4847
 30
0.0
 10
-1432.0553
 20
-574.5607
 30
0.0
 10
-1432.5224
 20
-573.6367
 30
0.0
 10
-1432.9895
 20
-572.7127
 30
0.0
 10
-1436.9652
 20
-564.8481
 30
0.0
 10
-1441.3514
 20
-556.9012
 30
0.0
 10
-1445.0688
 20
-548.9334
 30
0.0
 10
-1449.2286
 20
-540.0176
 30
0.0
 10
-1452.8313
 20
-530.385
 30
0.0
 10
-1456.5568
 20
-521.2675
 30
0.0
 10
-1459.9094
 20
-513.0628
 30
0.0
 10
-1463.0888
 20
-504.7855
 30
0.0
 10
-1466.0632
 20
-496.4358
 30
0.0
 10
-1468.7652
 20
-496.5308
 30
0.0
 10
-1471.4569
 20
-496.6985
 30
0.0
 10
-1474.1086
 20
-496.9425
 30
0.0
 10
-1488.2081
 20
-498.2401
 30
0.0
 10
-1497.6905
 20
-504.1092
 30
0.0
 10
-1509.8281
 20
-510.7156
 30
0.0
 10
-1516.6806
 20
-514.4454
 30
0.0
 10
-1523.5866
 20
-517.5818
 30
0.0
 10
-1531.1927
 20
-519.4862
 30
0.0
 10
-1538.262
 20
-521.2561
 30
0.0
 10
-1545.5311
 20
-522.3538
 30
0.0
 10
-1552.8883
 20
-522.9751
 30
0.0
 10
-1553.9371
 20
-546.5736
 30
0.0
 10
-1554.6704
 20
-563.0724
 30
0.0
 10
-1555.1831
 20
-574.6076
 30
0.0
 10
-1514.2532
 20
-573.5906
 30
0.0
 10
-1472.6995
 20
-575.1955
 30
0.0
 10
-1431.5883
 20
-575.4847
 30
0.0
  0
SPLINE
  5
65
330
1F
100
AcDbEntity
  8
Layer 1
 62
   250
370
    20
100
AcDbSpline
210
0.0
220
0.0
230
1.0
 70
    11
 71
     3
 72
    35
 73
    31
 74
     0
 42
0.0000000001
 43
0.0000000001
 40
0.0
 40
0.0
 40
0.0
 40
0.0
 40
0.1
 40
0.1
 40
0.1
 40
0.2
 40
0.2
 40
0.2
 40
0.3
 40
0.3
 40
0.3
 40
0.4
 40
0.4
 40
0.4
 40
0.5
 40
0.5
 40
0.5
 40
0.6000000000000001
 40
0.6000000000000001
 40
0.6000000000000001
 40
0.7000000000000001
 40
0.7000000000000001
 40
0.7000000000000001
 40
0.8
 40
0.8
 40
0.8
 40
0.9
 40
0.9
 40
0.9
 40
1.0
 40
1.0
 40
1.0
 40
1.0
 10
-1425.8516
 20
-600.5984
 30
0.0
 10
-1426.3186
 20
-601.5224
 30
0.0
 10
-1426.7857
 20
-602.4464
 30
0.0
 10
-1427.2528
 20
-603.3704
 30
0.0
 10
-1431.2285
 20
-611.235
 30
0.0
 10
-1435.6147
 20
-619.1819
 30
0.0
 10
-1439.3321
 20
-627.1497
 30
0.0
 10
-1443.4919
 20
-636.0655
 30
0.0
 10
-1447.0946
 20
-645.6981
 30
0.0
 10
-1450.8201
 20
-654.8156
 30
0.0
 10
-1454.1727
 20
-663.0203
 30
0.0
 10
-1457.3521
 20
-671.2976
 30
0.0
 10
-1460.3265
 20
-679.6473
 30
0.0
 10
-1463.0285
 20
-679.5523
 30
0.0
 10
-1465.7202
 20
-679.3846
 30
0.0
 10
-1468.3719
 20
-679.1406
 30
0.0
 10
-1482.4714
 20
-677.843
 30
0.0
 10
-1491.9538
 20
-671.9739
 30
0.0
 10
-1504.0914
 20
-665.3675
 30
0.0
 10
-1510.9439
 20
-661.6377
 30
0.0
 10
-1517.8499
 20
-658.5013
 30
0.0
 10
-1525.456
 20
-656.5969
 30
0.0
 10
-1532.5253
 20
-654.827
 30
0.0
 10
-1539.7944
 20
-653.7293
 30
0.0
 10
-1547.1516
 20
-653.108
 30
0.0
 10
-1548.2004
 20
-629.5095
 30
0.0
 10
-1548.9337
 20
-613.0107
 30
0.0
 10
-1549.4464
 20
-601.4755
 30
0.0
 10
-1508.5165
 20
-602.4925
 30
0.0
 10
-1466.9628
 20
-600.8876
 30
0.0
 10
-1425.8516
 20
-600.5984
 30
0.0
  0
SPLINE
  5
66
330
1F
100
AcDbEntity
  8
Layer 1
 62
   250
370
    20
100
AcDbSpline
210
0.0
220
0.0
230
1.0
 70
    11
 71
     3
 72
    35
 73
    31
 74
     0
 42
0.0000000001
 43
0.0000000001
 40
0.0
 40
0.0
 40
0.0
 40
0.0
 40
0.1
 40
0.1
 40
0.1
 40
0.2
 40
0.2
 40
0.2
 40
0.3
 40
0.3
 40
0.3
 40
0.4
 40
0.4
 40
0.4
 40
0.5
 40
0.5
 40
0.5
 40
0.6000000000000001
 40
0.6000000000000001
 40
0.6000000000000001
 40
0.7000000000000001
 40
0.7000000000000001
 40
0.7000000000000001
 40
0.8
 40
0.8
 40
0.8
 40
0.9
 40
0.9
 40
0.9
 40
1.0
 40
1.0
 40
1.0
 40
1.0
 10
-1593.8185
 20
-575.4847
 30
0.0
 10
-1594.2855
 20
-574.5607
 30
0.0
 10
-1594.7526
 20
-573.6367
 30
0.0
 10
-1595.2197
 20
-572.7127
 30
0.0
 10
-1599.1954
 20
-564.8481
 30
0.0
 10
-1603.5816
 20
-556.9012
 30
0.0
 10
-1607.299
 20
-548.9334
 30
0.0
 10
-1611.4588
 20
-540.0176
 30
0.0
 10
-1615.0615
 20
-530.385
 30
0.0
 10
-1618.787
 20
-521.2675
 30
0.0
 10
-1622.1396
 20
-513.0628
 30
0.0
 10
-1625.319
 20
-504.7855
 30
0.0
 10
-1628.2934
 20
-496.4358
 30
0.0
 10
-1630.9954
 20
-496.5308
 30
0.0
 10
-1633.6871
 20
-496.6985
 30
0.0
 10
-1636.3388
 20
-496.9425
 30
0.0
 10
-1650.4383
 20
-498.2401
 30
0.0
 10
-1659.9207
 20
-504.1092
 30
0.0
 10
-1672.0583
 20
-510.7156
 30
0.0
 10
-1678.9108
 20
-514.4454
 30
0.0
 10
-1685.8168
 20
-517.5818
 30
0.0
 10
-1693.4229
 20
-519.4862
 30
0.0
 10
-1700.4922
 20
-521.2561
 30
0.0
 10
-1707.7613
 20
-522.3538
 30
0.0
 10
-1715.1185
 20
-522.9751
 30
0.0
 10
-1716.1673
 20
-546.5736
 30
0.0
 10
-1716.9006
 20
-563.0724
 30
0.0
 10
-1717.4133
 20
-574.6076
 30
0.0
 10
-1676.4834
 20
-573.5906
 30
0.0
 10
-1634.9297
 20
-575.1955
 30
0.0
 10
-1593.8185
 20
-575.4847
 30
0.0
  0
SPLINE
  5
67
330
1F
100
AcDbEntity
  8
Layer 1
 62
   250
370
    20
100
AcDbSpline
210
0.0
220
0.0
230
1.0
 70
    11
 71
     3
 72
    35
 73
    31
 74
     0
 42
0.0000000001
 43
0.0000000001
 40
0.0
 40
0.0
 40
0.0
 40
0.0
 40
0.1
 40
0.1
 40
0.1
 40
0.2
 40
0.2
 40
0.2
 40
0.3
 40
0.3
 40
0.3
 40
0.4
 40
0.4
 40
0.4
 40
0.5
 40
0.5
 40
0.5
 40
0.6000000000000001
 40
0.6000000000000001
 40
0.6000000000000001
 40
0.7000000000000001
 40
0.7000000000000001
 40
0.7000000000000001
 40
0.8
 40
0.8
 40
0.8
 40
0.9
 40
0.9
 40
0.9
 40
1.0
 40
1.0
 40
1.0
 40
1.0
 10
-1588.0818
 20
-600.5984
 30
0.0
 10
-1588.5488
 20
-601.5224
 30
0.0
 10
-1589.0159
 20
-602.4464
 30
0.0
 10
-1589.483
 20
-603.3704
 30
0.0
 10
-1593.4587
 20
-611.235
 30
0.0
 10
-1597.8449
 20
-619.1819
 30
0.0
 10
-1601.5623
 20
-627.1497
 30
0.0
 10
-1605.7221
 20
-636.0655
 30
0.0
 10
-1609.3248
 20
-645.6981
 30
0.0
 10
-1613.0503
 20
-654.8156
 30
0.0
 10
-1616.4029
 20
-663.0203
 30
0.0
 10
-1619.5823
 20
-671.2976
 30
0.0
 10
-1622.5567
 20
-679.6473
 30
0.0
 10
-1625.2587
 20
-679.5523
 30
0.0
 10
-1627.9504
 20
-679.3846
 30
0.0
 10
-1630.6021
 20
-679.1406
 30
0.0
 10
-1644.7016
 20
-677.843
 30
0.0
 10
-1654.184
 20
-671.9739
 30
0.0
 10
-1666.3216
 20
-665.3675
 30
0.0
 10
-1673.1741
 20
-661.6377
 30
0.0
 10
-1680.0801
 20
-658.5013
 30
0.0
 10
-1687.6862
 20
-656.5969
 30
0.0
 10
-1694.7555
 20
-654.827
 30
0.0
 10
-1702.0246
 20
-653.7293
 30
0.0
 10
-1709.3818
 20
-653.108
 30
0.0
 10
-1710.4306
 20
-629.5095
 30
0.0
 10
-1711.1639
 20
-613.0107
 30
0.0
 10
-1711.6766
 20
-601.4755
 30
0.0
 10
-1670.7467
 20
-602.4925
 30
0.0
 10
-1629.193
 20
-600.8876
 30
0.0
 10
-1588.0818
 20
-600.5984
 30
0.0
  0
SPLINE
  5
68
330
1F
100
AcDbEntity
  8
Layer 1
 62
   250
370
    20
100
AcDbSpline
210
0.0
220
0.0
230
1.0
 70
    11
 71
     3
 72
    35
 73
    31
 74
     0
 42
0.0000000001
 43
0.0000000001
 40
0.0
 40
0.0
 40
0.0
 40
0.0
 40
0.1
 40
0.1
 40
0.1
 40
0.2
 40
0.2
 40
0.2
 40
0.3
 40
0.3
 40
0.3
 40
0.4
 40
0.4
 40
0.4
 40
0.5
 40
0.5
 40
0.5
 40
0.6000000000000001
 40
0.6000000000000001
 40
0.6000000000000001
 40
0.7000000000000001
 40
0.7000000000000001
 40
0.7000000000000001
 40
0.8
 40
0.8
 40
0.8
 40
0.9
 40
0.9
 40
0.9
 40
1.0
 40
1.0
 40
1.0
 40
1.0
 10
-1825.5771
 20
-575.4847
 30
0.0
 10
-1826.0441
 20
-574.5607
 30
0.0
 10
-1826.5112
 20
-573.6367
 30
0.0
 10
-1826.9783
 20
-572.7127
 30
0.0
 10
-1830.954
 20
-564.8481
 30
0.0
 10
-1835.3402
 20
-556.9012
 30
0.0
 10
-1839.0576
 20
-548.9334
 30
0.0
 10
-1843.2174
 20
-540.0176
 30
0.0
 10
-1846.8201
 20
-530.385
 30
0.0
 10
-1850.5456
 20
-521.2675
 30
0.0
 10
-1853.8982
 20
-513.0628
 30
0.0
 10
-1857.0776
 20
-504.7855
 30
0.0
 10
-1860.052
 20
-496.4358
 30
0.0
 10
-1862.754
 20
-496.5308
 30
0.0
 10
-1865.4457
 20
-496.6985
 30
0.0
 10
-1868.0974
 20
-496.9425
 30
0.0
 10
-1882.1969
 20
-498.2401
 30
0.0
 10
-1891.6793
 20
-504.1092
 30
0.0
 10
-1903.8169
 20
-510.7156
 30
0.0
 10
-1910.6694
 20
-514.4454
 30
0.0
 10
-1917.5754
 20
-517.5818
 30
0.0
 10
-1925.1815
 20
-519.4862
 30
0.0
 10
-1932.2508
 20
-521.2561
 30
0.0
 10
-1939.5199
 20
-522.3538
 30
0.0
 10
-1946.8771
 20
-522.9751
 30
0.0
 10
-1947.9259
 20
-546.5736
 30
0.0
 10
-1948.6592
 20
-563.0724
 30
0.0
 10
-1949.1719
 20
-574.6076
 30
0.0
 10
-1908.242
 20
-573.5906
 30
0.0
 10
-1866.6883
 20
-575.1955
 30
0.0
 10
-1825.5771
 20
-575.4847
 30
0.0
  0
SPLINE
  5
69
330
1F
100
AcDbEntity
  8
Layer 1
 62
   250
370
    20
100
AcDbSpline
210
0.0
220
0.0
230
1.0
 70
    11
 71
     3
 72
    35
 73
    31
 74
     0
 42
0.0000000001
 43
0.0000000001
 40
0.0
 40
0.0
 40
0.0
 40
0.0
 40
0.1
 40
0.1
 40
0.1
 40
0.2
 40
0.2
 40
0.2
 40
0.3
 40
0.3
 40
0.3
 40
0.4
 40
0.4
 40
0.4
 40
0.5
 40
0.5
 40
0.5
 40
0.6000000000000001
 40
0.6000000000000001
 40
0.6000000000000001
 40
0.7000000000000001
 40
0.7000000000000001
 40
0.7000000000000001
 40
0.8
 40
0.8
 40
0.8
 40
0.9
 40
0.9
 40
0.9
 40
1.0
 40
1.0
 40
1.0
 40
1.0
 10
-1819.8404
 20
-600.5984
 30
0.0
 10
-1820.3074
 20
-601.5224
 30
0.0
 10
-1820.7745
 20
-602.4464
 30
0.0
 10
-1821.2416
 20
-603.3704
 30
0.0
 10
-1825.2173
 20
-611.235
 30
0.0
 10
-1829.6035
 20
-619.1819
 30
0.0
 10
-1833.3209
 20
-627.1497
 30
0.0
 10
-1837.4807
 20
-636.0655
 30
0.0
 10
-1841.0834
 20
-645.6981
 30
0.0
 10
-1844.8089
 20
-654.8156
 30
0.0
 10
-1848.1615
 20
-663.0203
 30
0.0
 10
-1851.3409
 20
-671.2976
 30
0.0
 10
-1854.3153
 20
-679.6473
 30
0.0
 10
-1857.0173
 20
-679.5523
 30
0.0
 10
-1859.709
 20
-679.3846
 30
0.0
 10
-1862.3607
 20
-679.1406
 30
0.0
 10
-1876.4602
 20
-677.843
 30
0.0
 10
-1885.9426
 20
-671.9739
 30
0.0
 10
-1898.0802
 20
-665.3675
 30
0.0
 10
-1904.9327
 20
-661.6377
 30
0.0
 10
-1911.8387
 20
-658.5013
 30
0.0
 10
-1919.4448
 20
-656.5969
 30
0.0
 10
-1926.5141
 20
-654.827
 30
0.0
 10
-1933.7832
 20
-653.7293
 30
0.0
 10
-1941.1404
 20
-653.108
 30
0.0
 10
-1942.1892
 20
-629.5095
 30
0.0
 10
-1942.9225
 20
-613.0107
 30
0.0
 10
-1943.4352
 20
-601.4755
 30
0.0
 10
-1902.5053
 20
-602.4925
 30
0.0
 10
-1860.9516
 20
-600.8876
 30
0.0
 10
-1819.8404
 20
-600.5984
 30
0.0
  0
SPLINE
  5
6A
330
1F
100
AcDbEntity
  8
Layer 1
 62
   250
370
    20
100
AcDbSpline
210
0.0
220
0.0
230
1.0
 70
    11
 71
     3
 72
    35
 73
    31
 74
     0
 42
0.0000000001
 43
0.0000000001
 40
0.0
 40
0.0
 40
0.0
 40
0.0
 40
0.1
 40
0.1
 40
0.1
 40
0.2
 40
0.2
 40
0.2
 40
0.3
 40
0.3
 40
0.3
 40
0.4
 40
0.4
 40
0.4
 40
0.5
 40
0.5
 40
0.5
 40
0.6000000000000001
 40
0.6000000000000001
 40
0.6000000000000001
 40
0.7000000000000001
 40
0.7000000000000001
 40
0.7000000000000001
 40
0.8
 40
0.8
 40
0.8
 40
0.9
 40
0.9
 40
0.9
 40
1.0
 40
1.0
 40
1.0
 40
1.0
 10
-1987.8073
 20
-575.4847
 30
0.0
 10
-1988.2743
 20
-574.5607
 30
0.0
 10
-1988.7414
 20
-573.6367
 30
0.0
 10
-1989.2085
 20
-572.7127
 30
0.0
 10
-1993.1842
 20
-564.8481
 30
0.0
 10
-1997.5704
 20
-556.9012
 30
0.0
 10
-2001.2878
 20
-548.9334
 30
0.0
 10
-2005.4476
 20
-540.0176
 30
0.0
 10
-2009.0503
 20
-530.385
 30
0.0
 10
-2012.7758
 20
-521.2675
 30
0.0
 10
-2016.1284
 20
-513.0628
 30
0.0
 10
-2019.3078
 20
-504.7855
 30
0.0
 10
-2022.2822
 20
-496.4358
 30
0.0
 10
-2024.9842
 20
-496.5308
 30
0.0
 10
-2027.6759
 20
-496.6985
 30
0.0
 10
-2030.3276
 20
-496.9425
 30
0.0
 10
-2044.4271
 20
-498.2401
 30
0.0
 10
-2053.9095
 20
-504.1092
 30
0.0
 10
-2066.0471
 20
-510.7156
 30
0.0
 10
-2072.8996
 20
-514.4454
 30
0.0
 10
-2079.8056
 20
-517.5818
 30
0.0
 10
-2087.4117
 20
-519.4862
 30
0.0
 10
-2094.481
 20
-521.2561
 30
0.0
 10
-2101.7501
 20
-522.3538
 30
0.0
 10
-2109.1073
 20
-522.9751
 30
0.0
 10
-2110.1561
 20
-546.5736
 30
0.0
 10
-2110.8894
 20
-563.0724
 30
0.0
 10
-2111.4021
 20
-574.6076
 30
0.0
 10
-2070.4722
 20
-573.5906
 30
0.0
 10
-2028.9185
 20
-575.1955
 30
0.0
 10
-1987.8073
 20
-575.4847
 30
0.0
  0
SPLINE
  5
6B
330
1F
100
AcDbEntity
  8
Layer 1
 62
   250
370
    20
100
AcDbSpline
210
0.0
220
0.0
230
1.0
 70
    11
 71
     3
 72
    35
 73
    31
 74
     0
 42
0.0000000001
 43
0.0000000001
 40
0.0
 40
0.0
 40
0.0
 40
0.0
 40
0.1
 40
0.1
 40
0.1
 40
0.2
 40
0.2
 40
0.2
 40
0.3
 40
0.3
 40
0.3
 40
0.4
 40
0.4
 40
0.4
 40
0.5
 40
0.5
 40
0.5
 40
0.6000000000000001
 40
0.6000000000000001
 40
0.6000000000000001
 40
0.7000000000000001
 40
0.7000000000000001
 40
0.7000000000000001
 40
0.8
 40
0.8
 40
0.8
 40
0.9
 40
0.9
 40
0.9
 40
1.0
 40
1.0
 40
1.0
 40
1.0
 10
-1982.0706
 20
-600.5984
 30
0.0
 10
-1982.5376
 20
-601.5224
 30
0.0
 10
-1983.0047
 20
-602.4464
 30
0.0
 10
-1983.4718
 20
-603.3704
 30
0.0
 10
-1987.4475
 20
-611.235
 30
0.0
 10
-1991.8337
 20
-619.1819
 30
0.0
 10
-1995.5511
 20
-627.1497
 30
0.0
 10
-1999.7109
 20
-636.0655
 30
0.0
 10
-2003.3136
 20
-645.6981
 30
0.0
 10
-2007.0391
 20
-654.8156
 30
0.0
 10
-2010.3917
 20
-663.0203
 30
0.0
 10
-2013.5711
 20
-671.2976
 30
0.0
 10
-2016.5455
 20
-679.6473
 30
0.0
 10
-2019.2475
 20
-679.5523
 30
0.0
 10
-2021.9392
 20
-679.3846
 30
0.0
 10
-2024.5909
 20
-679.1406
 30
0.0
 10
-2038.6904
 20
-677.843
 30
0.0
 10
-2048.1728
 20
-671.9739
 30
0.0
 10
-2060.3104
 20
-665.3675
 30
0.0
 10
-2067.1629
 20
-661.6377
 30
0.0
 10
-2074.0689
 20
-658.5013
 30
0.0
 10
-2081.675
 20
-656.5969
 30
0.0
 10
-2088.7443
 20
-654.827
 30
0.0
 10
-2096.0134
 20
-653.7293
 30
0.0
 10
-2103.3706
 20
-653.108
 30
0.0
 10
-2104.4194
 20
-629.5095
 30
0.0
 10
-2105.1527
 20
-613.0107
 30
0.0
 10
-2105.6654
 20
-601.4755
 30
0.0
 10
-2064.7355
 20
-602.4925
 30
0.0
 10
-2023.1818
 20
-600.8876
 30
0.0
 10
-1982.0706
 20
-600.5984
 30
0.0
  0
SPLINE
  5
6C
330
1F
100
AcDbEntity
  8
Layer 1
 62
   250
370
    20
100
AcDbSpline
210
0.0
220
0.0
230
1.0
 70
    11
 71
     3
 72
    35
 73
    31
 74
     0
 42
0.0000000001
 43
0.0000000001
 40
0.0
 40
0.0
 40
0.0
 40
0.0
 40
0.1
 40
0.1
 40
0.1
 40
0.2
 40
0.2
 40
0.2
 40
0.3
 40
0.3
 40
0.3
 40
0.4
 40
0.4
 40
0.4
 40
0.5
 40
0.5
 40
0.5
 40
0.6000000000000001
 40
0.6000000000000001
 40
0.6000000000000001
 40
0.7000000000000001
 40
0.7000000000000001
 40
0.7000000000000001
 40
0.8
 40
0.8
 40
0.8
 40
0.9
 40
0.9
 40
0.9
 40
1.0
 40
1.0
 40
1.0
 40
1.0
 10
-2219.5659
 20
-575.4847
 30
0.0
 10
-2220.0329
 20
-574.5607
 30
0.0
 10
-2220.5
 20
-573.6367
 30
0.0
 10
-2220.9671
 20
-572.7127
 30
0.0
 10
-2224.9428
 20
-564.8481
 30
0.0
 10
-2229.329
 20
-556.9012
 30
0.0
 10
-2233.0464
 20
-548.9334
 30
0.0
 10
-2237.2062
 20
-540.0176
 30
0.0
 10
-2240.8089
 20
-530.385
 30
0.0
 10
-2244.5344
 20
-521.2675
 30
0.0
 10
-2247.887
 20
-513.0628
 30
0.0
 10
-2251.0664
 20
-504.7855
 30
0.0
 10
-2254.0408
 20
-496.4358
 30
0.0
 10
-2256.7428
 20
-496.5308
 30
0.0
 10
-2259.4345
 20
-496.6985
 30
0.0
 10
-2262.0862
 20
-496.9425
 30
0.0
 10
-2276.1857
 20
-498.2401
 30
0.0
 10
-2285.6681
 20
-504.1092
 30
0.0
 10
-2297.8057
 20
-510.7156
 30
0.0
 10
-2304.6582
 20
-514.4454
 30
0.0
 10
-2311.5642
 20
-517.5818
 30
0.0
 10
-2319.1703
 20
-519.4862
 30
0.0
 10
-2326.2396
 20
-521.2561
 30
0.0
 10
-2333.5087
 20
-522.3538
 30
0.0
 10
-2340.8659
 20
-522.9751
 30
0.0
 10
-2341.9147
 20
-546.5736
 30
0.0
 10
-2342.648
 20
-563.0724
 30
0.0
 10
-2343.1607
 20
-574.6076
 30
0.0
 10
-2302.2308
 20
-573.5906
 30
0.0
 10
-2260.6771
 20
-575.1955
 30
0.0
 10
-2219.5659
 20
-575.4847
 30
0.0
  0
SPLINE
  5
6D
330
1F
100
AcDbEntity
  8
Layer 1
 62
   250
370
    20
100
AcDbSpline
210
0.0
220
0.0
230
1.0
 70
    11
 71
     3
 72
    35
 73
    31
 74
     0
 42
0.0000000001
 43
0.0000000001
 40
0.0
 40
0.0
 40
0.0
 40
0.0
 40
0.1
 40
0.1
 40
0.1
 40
0.2
 40
0.2
 40
0.2
 40
0.3
 40
0.3
 40
0.3
 40
0.4
 40
0.4
 40
0.4
 40
0.5
 40
0.5
 40
0.5
 40
0.6000000000000001
 40
0.6000000000000001
 40
0.6000000000000001
 40
0.7000000000000001
 40
0.7000000000000001
 40
0.7000000000000001
 40
0.8
 40
0.8
 40
0.8
 40
0.9
 40
0.9
 40
0.9
 40
1.0
 40
1.0
 40
1.0
 40
1.0
 10
-2213.8292
 20
-600.5984
 30
0.0
 10
-2214.2962
 20
-601.5224
 30
0.0
 10
-2214.7633
 20
-602.4464
 30
0.0
 10
-2215.2304
 20
-603.3704
 30
0.0
 10
-2219.2061
 20
-611.235
 30
0.0
 10
-2223.5923
 20
-619.1819
 30
0.0
 10
-2227.3097
 20
-627.1497
 30
0.0
 10
-2231.4695
 20
-636.0655
 30
0.0
 10
-2235.0722
 20
-645.6981
 30
0.0
 10
-2238.7977
 20
-654.8156
 30
0.0
 10
-2242.1503
 20
-663.0203
 30
0.0
 10
-2245.3297
 20
-671.2976
 30
0.0
 10
-2248.3041
 20
-679.6473
 30
0.0
 10
-2251.0061
 20
-679.5523
 30
0.0
 10
-2253.6978
 20
-679.3846
 30
0.0
 10
-2256.3495
 20
-679.1406
 30
0.0
 10
-2270.449
 20
-677.843
 30
0.0
 10
-2279.9314
 20
-671.9739
 30
0.0
 10
-2292.069
 20
-665.3675
 30
0.0
 10
-2298.9215
 20
-661.6377
 30
0.0
 10
-2305.8275
 20
-658.5013
 30
0.0
 10
-2313.4336
 20
-656.5969
 30
0.0
 10
-2320.5029
 20
-654.827
 30
0.0
 10
-2327.772
 20
-653.7293
 30
0.0
 10
-2335.1292
 20
-653.108
 30
0.0
 10
-2336.178
 20
-629.5095
 30
0.0
 10
-2336.9113
 20
-613.0107
 30
0.0
 10
-2337.424
 20
-601.4755
 30
0.0
 10
-2296.4941
 20
-602.4925
 30
0.0
 10
-2254.9404
 20
-600.8876
 30
0.0
 10
-2213.8292
 20
-600.5984
 30
0.0
  0
SPLINE
  5
6E
330
1F
100
AcDbEntity
  8
Layer 1
 62
   250
370
    20
100
AcDbSpline
210
0.0
220
0.0
230
1.0
 70
    11
 71
     3
 72
    35
 73
    31
 74
     0
 42
0.0000000001
 43
0.0000000001
 40
0.0
 40
0.0
 40
0.0
 40
0.0
 40
0.1
 40
0.1
 40
0.1
 40
0.2
 40
0.2
 40
0.2
 40
0.3
 40
0.3
 40
0.3
 40
0.4
 40
0.4
 40
0.4
 40
0.5
 40
0.5
 40
0.5
 40
0.6000000000000001
 40
0.6000000000000001
 40
0.6000000000000001
 40
0.7000000000000001
 40
0.7000000000000001
 40
0.7000000000000001
 40
0.8
 40
0.8
 40
0.8
 40
0.9
 40
0.9
 40
0.9
 40
1.0
 40
1.0
 40
1.0
 40
1.0
 10
-2381.7961
 20
-575.4847
 30
0.0
 10
-2382.2631
 20
-574.5607
 30
0.0
 10
-2382.7302
 20
-573.6367
 30
0.0
 10
-2383.1973
 20
-572.7127
 30
0.0
 10
-2387.173
 20
-564.8481
 30
0.0
 10
-2391.5592
 20
-556.9012
 30
0.0
 10
-2395.2766
 20
-548.9334
 30
0.0
 10
-2399.4364
 20
-540.0176
 30
0.0
 10
-2403.0391
 20
-530.385
 30
0.0
 10
-2406.7646
 20
-521.2675
 30
0.0
 10
-2410.1172
 20
-513.0628
 30
0.0
 10
-2413.2966
 20
-504.7855
 30
0.0
 10
-2416.271
 20
-496.4358
 30
0.0
 10
-2418.973
 20
-496.5308
 30
0.0
 10
-2421.6647
 20
-496.6985
 30
0.0
 10
-2424.3164
 20
-496.9425
 30
0.0
 10
-2438.4159
 20
-498.2401
 30
0.0
 10
-2447.8983
 20
-504.1092
 30
0.0
 10
-2460.0359
 20
-510.7156
 30
0.0
 10
-2466.8884
 20
-514.4454
 30
0.0
 10
-2473.7944
 20
-517.5818
 30
0.0
 10
-2481.4005
 20
-519.4862
 30
0.0
 10
-2488.4698
 20
-521.2561
 30
0.0
 10
-2495.7389
 20
-522.3538
 30
0.0
 10
-2503.0961
 20
-522.9751
 30
0.0
 10
-2504.1449
 20
-546.5736
 30
0.0
 10
-2504.8782
 20
-563.0724
 30
0.0
 10
-2505.3909
 20
-574.6076
 30
0.0
 10
-2464.461
 20
-573.5906
 30
0.0
 10
-2422.9073
 20
-575.1955
 30
0.0
 10
-2381.7961
 20
-575.4847
 30
0.0
  0
SPLINE
  5
6F
330
1F
100
AcDbEntity
  8
Layer 1
 62
   250
370
    20
100
AcDbSpline
210
0.0
220
0.0
230
1.0
 70
    11
 71
     3
 72
    35
 73
    31
 74
     0
 42
0.0000000001
 43
0.0000000001
 40
0.0
 40
0.0
 40
0.0
 40
0.0
 40
0.1
 40
0.1
 40
0.1
 40
0.2
 40
0.2
 40
0.2
 40
0.3
 40
0.3
 40
0.3
 40
0.4
 40
0.4
 40
0.4
 40
0.5
 40
0.5
 40
0.5
 40
0.6000000000000001
 40
0.6000000000000001
 40
0.6000000000000001
 40
0.7000000000000001
 40
0.7000000000000001
 40
0.7000000000000001
 40
0.8
 40
0.8
 40
0.8
 40
0.9
 40
0.9
 40
0.9
 40
1.0
 40
1.0
 40
1.0
 40
1.0
 10
-2376.0594
 20
-600.5984
 30
0.0
 10
-2376.5264
 20
-601.5224
 30
0.0
 10
-2376.9935
 20
-602.4464
 30
0.0
 10
-2377.4606
 20
-603.3704
 30
0.0
 10
-2381.4363
 20
-611.235
 30
0.0
 10
-2385.8225
 20
-619.1819
 30
0.0
 10
-2389.5399
 20
-627.1497
 30
0.0
 10
-2393.6997
 20
-636.0655
 30
0.0
 10
-2397.3024
 20
-645.6981
 30
0.0
 10
-2401.0279
 20
-654.8156
 30
0.0
 10
-2404.3805
 20
-663.0203
 30
0.0
 10
-2407.5599
 20
-671.2976
 30
0.0
 10
-2410.5343
 20
-679.6473
 30
0.0
 10
-2413.2363
 20
-679.5523
 30
0.0
 10
-2415.928
 20
-679.3846
 30
0.0
 10
-2418.5797
 20
-679.1406
 30
0.0
 10
-2432.6792
 20
-677.843
 30
0.0
 10
-2442.1616
 20
-671.9739
 30
0.0
 10
-2454.2992
 20
-665.3675
 30
0.0
 10
-2461.1517
 20
-661.6377
 30
0.0
 10
-2468.0577
 20
-658.5013
 30
0.0
 10
-2475.6638
 20
-656.5969
 30
0.0
 10
-2482.7331
 20
-654.827
 30
0.0
 10
-2490.0022
 20
-653.7293
 30
0.0
 10
-2497.3594
 20
-653.108
 30
0.0
 10
-2498.4082
 20
-629.5095
 30
0.0
 10
-2499.1415
 20
-613.0107
 30
0.0
 10
-2499.6542
 20
-601.4755
 30
0.0
 10
-2458.7243
 20
-602.4925
 30
0.0
 10
-2417.1706
 20
-600.8876
 30
0.0
 10
-2376.0594
 20
-600.5984
 30
0.0
  0
SPLINE
  5
70
330
1F
100
AcDbEntity
  8
Layer 1
 62
   250
370
    20
100
AcDbSpline
210
0.0
220
0.0
230
1.0
 70
    11
 71
     3
 72
    44
 73
    40
 74
     0
 42
0.0000000001
 43
0.0000000001
 40
0.0
 40
0.0
 40
0.0
 40
0.0
 40
0.0769230769230769
 40
0.0769230769230769
 40
0.0769230769230769
 40
0.1538461538461539
 40
0.1538461538461539
 40
0.1538461538461539
 40
0.2307692307692308
 40
0.2307692307692308
 40
0.2307692307692308
 40
0.3076923076923077
 40
0.3076923076923077
 40
0.3076923076923077
 40
0.3846153846153846
 40
0.3846153846153846
 40
0.3846153846153846
 40
0.4615384615384616
 40
0.4615384615384616
 40
0.4615384615384616
 40
0.5384615384615385
 40
0.5384615384615385
 40
0.5384615384615385
 40
0.6153846153846154
 40
0.6153846153846154
 40
0.6153846153846154
 40
0.6923076923076923
 40
0.6923076923076923
 40
0.6923076923076923
 40
0.7692307692307693
 40
0.7692307692307693
 40
0.7692307692307693
 40
0.8461538461538463
 40
0.8461538461538463
 40
0.8461538461538463
 40
0.9230769230769231
 40
0.9230769230769231
 40
0.9230769230769231
 40
1.0
 40
1.0
 40
1.0
 40
1.0
 10
-1282.978
 20
-870.2768
 30
0.0
 10
-1277.05
 20
-901.3799
 30
0.0
 10
-1274.2197
 20
-930.3874
 30
0.0
 10
-1274.487
 20
-957.2994
 30
0.0
 10
-1271.0701
 20
-957.8652
 30
0.0
 10
-1267.6359
 20
-958.317
 30
0.0
 10
-1264.2414
 20
-958.6367
 30
0.0
 10
-1249.6235
 20
-960.0136
 30
0.0
 10
-1239.0099
 20
-955.9675
 30
0.0
 10
-1225.3888
 20
-951.5627
 30
0.0
 10
-1218.2119
 20
-949.2418
 30
0.0
 10
-1211.0835
 20
-947.4793
 30
0.0
 10
-1203.5164
 20
-947.0273
 30
0.0
 10
-1201.1694
 20
-946.8871
 30
0.0
 10
-1198.5648
 20
-946.5711
 30
0.0
 10
-1196.23
 20
-946.5787
 30
0.0
 10
-1193.5115
 20
-946.5875
 30
0.0
 10
-1190.4905
 20
-946.945
 30
0.0
 10
-1187.7635
 20
-947.1234
 30
0.0
 10
-1185.7524
 20
-947.2549
 30
0.0
 10
-1183.7429
 20
-947.4266
 30
0.0
 10
-1181.7355
 20
-947.6341
 30
0.0
 10
-1181.309
 20
-933.8936
 30
0.0
 10
-1180.556
 20
-909.6387
 30
0.0
 10
-1179.227
 20
-866.8233
 30
0.0
 10
-1179.5722
 20
-866.793
 30
0.0
 10
-1179.9175
 20
-866.7627
 30
0.0
 10
-1180.2627
 20
-866.7324
 30
0.0
 10
-1180.9241
 20
-858.0831
 30
0.0
 10
-1186.9752
 20
-855.3619
 30
0.0
 10
-1194.4677
 20
-853.7814
 30
0.0
 10
-1199.6874
 20
-852.6803
 30
0.0
 10
-1204.6181
 20
-852.8543
 30
0.0
 10
-1208.6798
 20
-853.6741
 30
0.0
 10
-1220.5016
 20
-856.0607
 30
0.0
 10
-1222.0953
 20
-862.3657
 30
0.0
 10
-1223.4674
 20
-873.5688
 30
0.0
 10
-1243.3455
 20
-872.6045
 30
0.0
 10
-1263.1867
 20
-871.5209
 30
0.0
 10
-1282.978
 20
-870.2768
 30
0.0
  0
SPLINE
  5
71
330
1F
100
AcDbEntity
  8
Layer 1
 62
   250
370
    20
100
AcDbSpline
210
0.0
220
0.0
230
1.0
 70
    11
 71
     3
 72
    44
 73
    40
 74
     0
 42
0.0000000001
 43
0.0000000001
 40
0.0
 40
0.0
 40
0.0
 40
0.0
 40
0.0769230769230769
 40
0.0769230769230769
 40
0.0769230769230769
 40
0.1538461538461539
 40
0.1538461538461539
 40
0.1538461538461539
 40
0.2307692307692308
 40
0.2307692307692308
 40
0.2307692307692308
 40
0.3076923076923077
 40
0.3076923076923077
 40
0.3076923076923077
 40
0.3846153846153846
 40
0.3846153846153846
 40
0.3846153846153846
 40
0.4615384615384616
 40
0.4615384615384616
 40
0.4615384615384616
 40
0.5384615384615385
 40
0.5384615384615385
 40
0.5384615384615385
 40
0.6153846153846154
 40
0.6153846153846154
 40
0.6153846153846154
 40
0.6923076923076923
 40
0.6923076923076923
 40
0.6923076923076923
 40
0.7692307692307693
 40
0.7692307692307693
 40
0.7692307692307693
 40
0.8461538461538463
 40
0.8461538461538463
 40
0.8461538461538463
 40
0.9230769230769231
 40
0.9230769230769231
 40
0.9230769230769231
 40
1.0
 40
1.0
 40
1.0
 40
1.0
 10
-1483.8878
 20
-870.2768
 30
0.0
 10
-1477.9598
 20
-901.3799
 30
0.0
 10
-1475.1295
 20
-930.3874
 30
0.0
 10
-1475.3968
 20
-957.2994
 30
0.0
 10
-1471.9799
 20
-957.8652
 30
0.0
 10
-1468.5457
 20
-958.317
 30
0.0
 10
-1465.1512
 20
-958.6367
 30
0.0
 10
-1450.5333
 20
-960.0136
 30
0.0
 10
-1439.9197
 20
-955.9675
 30
0.0
 10
-1426.2986
 20
-951.5627
 30
0.0
 10
-1419.1217
 20
-949.2418
 30
0.0
 10
-1411.9933
 20
-947.4793
 30
0.0
 10
-1404.4262
 20
-947.0273
 30
0.0
 10
-1402.0792
 20
-946.8871
 30
0.0
 10
-1399.4746
 20
-946.5711
 30
0.0
 10
-1397.1398
 20
-946.5787
 30
0.0
 10
-1394.4213
 20
-946.5875
 30
0.0
 10
-1391.4003
 20
-946.945
 30
0.0
 10
-1388.6733
 20
-947.1234
 30
0.0
 10
-1386.6622
 20
-947.2549
 30
0.0
 10
-1384.6527
 20
-947.4266
 30
0.0
 10
-1382.6453
 20
-947.6341
 30
0.0
 10
-1382.2188
 20
-933.8936
 30
0.0
 10
-1381.4658
 20
-909.6387
 30
0.0
 10
-1380.1368
 20
-866.8233
 30
0.0
 10
-1380.482
 20
-866.793
 30
0.0
 10
-1380.8273
 20
-866.7627
 30
0.0
 10
-1381.1725
 20
-866.7324
 30
0.0
 10
-1381.8339
 20
-858.0831
 30
0.0
 10
-1387.885
 20
-855.3619
 30
0.0
 10
-1395.3775
 20
-853.7814
 30
0.0
 10
-1400.5972
 20
-852.6803
 30
0.0
 10
-1405.5279
 20
-852.8543
 30
0.0
 10
-1409.5896
 20
-853.6741
 30
0.0
 10
-1421.4114
 20
-856.0607
 30
0.0
 10
-1423.0051
 20
-862.3657
 30
0.0
 10
-1424.3772
 20
-873.5688
 30
0.0
 10
-1444.2553
 20
-872.6045
 30
0.0
 10
-1464.0965
 20
-871.5209
 30
0.0
 10
-1483.8878
 20
-870.2768
 30
0.0
  0
SPLINE
  5
72
330
1F
100
AcDbEntity
  8
Layer 1
 62
   250
370
    20
100
AcDbSpline
210
0.0
220
0.0
230
1.0
 70
    11
 71
     3
 72
    44
 73
    40
 74
     0
 42
0.0000000001
 43
0.0000000001
 40
0.0
 40
0.0
 40
0.0
 40
0.0
 40
0.0769230769230769
 40
0.0769230769230769
 40
0.0769230769230769
 40
0.1538461538461539
 40
0.1538461538461539
 40
0.1538461538461539
 40
0.2307692307692308
 40
0.2307692307692308
 40
0.2307692307692308
 40
0.3076923076923077
 40
0.3076923076923077
 40
0.3076923076923077
 40
0.3846153846153846
 40
0.3846153846153846
 40
0.3846153846153846
 40
0.4615384615384616
 40
0.4615384615384616
 40
0.4615384615384616
 40
0.5384615384615385
 40
0.5384615384615385
 40
0.5384615384615385
 40
0.6153846153846154
 40
0.6153846153846154
 40
0.6153846153846154
 40
0.6923076923076923
 40
0.6923076923076923
 40
0.6923076923076923
 40
0.7692307692307693
 40
0.7692307692307693
 40
0.7692307692307693
 40
0.8461538461538463
 40
0.8461538461538463
 40
0.8461538461538463
 40
0.9230769230769231
 40
0.9230769230769231
 40
0.9230769230769231
 40
1.0
 40
1.0
 40
1.0
 40
1.0
 10
-1648.5222
 20
-870.2768
 30
0.0
 10
-1642.5942
 20
-901.3799
 30
0.0
 10
-1639.7639
 20
-930.3874
 30
0.0
 10
-1640.0312
 20
-957.2994
 30
0.0
 10
-1636.6143
 20
-957.8652
 30
0.0
 10
-1633.1801
 20
-958.317
 30
0.0
 10
-1629.7856
 20
-958.6367
 30
0.0
 10
-1615.1677
 20
-960.0136
 30
0.0
 10
-1604.5541
 20
-955.9675
 30
0.0
 10
-1590.933
 20
-951.5627
 30
0.0
 10
-1583.7561
 20
-949.2418
 30
0.0
 10
-1576.6277
 20
-947.4793
 30
0.0
 10
-1569.0606
 20
-947.0273
 30
0.0
 10
-1566.7136
 20
-946.8871
 30
0.0
 10
-1564.109
 20
-946.5711
 30
0.0
 10
-1561.7742
 20
-946.5787
 30
0.0
 10
-1559.0557
 20
-946.5875
 30
0.0
 10
-1556.0347
 20
-946.945
 30
0.0
 10
-1553.3077
 20
-947.1234
 30
0.0
 10
-1551.2966
 20
-947.2549
 30
0.0
 10
-1549.2871
 20
-947.4266
 30
0.0
 10
-1547.2797
 20
-947.6341
 30
0.0
 10
-1546.8532
 20
-933.8936
 30
0.0
 10
-1546.1002
 20
-909.6387
 30
0.0
 10
-1544.7712
 20
-866.8233
 30
0.0
 10
-1545.1164
 20
-866.793
 30
0.0
 10
-1545.4617
 20
-866.7627
 30
0.0
 10
-1545.8069
 20
-866.7324
 30
0.0
 10
-1546.4683
 20
-858.0831
 30
0.0
 10
-1552.5194
 20
-855.3619
 30
0.0
 10
-1560.0119
 20
-853.7814
 30
0.0
 10
-1565.2316
 20
-852.6803
 30
0.0
 10
-1570.1623
 20
-852.8543
 30
0.0
 10
-1574.224
 20
-853.6741
 30
0.0
 10
-1586.0458
 20
-856.0607
 30
0.0
 10
-1587.6395
 20
-862.3657
 30
0.0
 10
-1589.0116
 20
-873.5688
 30
0.0
 10
-1608.8897
 20
-872.6045
 30
0.0
 10
-1628.7309
 20
-871.5209
 30
0.0
 10
-1648.5222
 20
-870.2768
 30
0.0
  0
SPLINE
  5
73
330
1F
100
AcDbEntity
  8
Layer 1
 62
   250
370
    20
100
AcDbSpline
210
0.0
220
0.0
230
1.0
 70
    11
 71
     3
 72
    44
 73
    40
 74
     0
 42
0.0000000001
 43
0.0000000001
 40
0.0
 40
0.0
 40
0.0
 40
0.0
 40
0.0769230769230769
 40
0.0769230769230769
 40
0.0769230769230769
 40
0.1538461538461539
 40
0.1538461538461539
 40
0.1538461538461539
 40
0.2307692307692308
 40
0.2307692307692308
 40
0.2307692307692308
 40
0.3076923076923077
 40
0.3076923076923077
 40
0.3076923076923077
 40
0.3846153846153846
 40
0.3846153846153846
 40
0.3846153846153846
 40
0.4615384615384616
 40
0.4615384615384616
 40
0.4615384615384616
 40
0.5384615384615385
 40
0.5384615384615385
 40
0.5384615384615385
 40
0.6153846153846154
 40
0.6153846153846154
 40
0.6153846153846154
 40
0.6923076923076923
 40
0.6923076923076923
 40
0.6923076923076923
 40
0.7692307692307693
 40
0.7692307692307693
 40
0.7692307692307693
 40
0.8461538461538463
 40
0.8461538461538463
 40
0.8461538461538463
 40
0.9230769230769231
 40
0.9230769230769231
 40
0.9230769230769231
 40
1.0
 40
1.0
 40
1.0
 40
1.0
 10
-1849.432
 20
-870.2768
 30
0.0
 10
-1843.504
 20
-901.3799
 30
0.0
 10
-1840.6737
 20
-930.3874
 30
0.0
 10
-1840.941
 20
-957.2994
 30
0.0
 10
-1837.5241
 20
-957.8652
 30
0.0
 10
-1834.0899
 20
-958.317
 30
0.0
 10
-1830.6954
 20
-958.6367
 30
0.0
 10
-1816.0775
 20
-960.0136
 30
0.0
 10
-1805.4639
 20
-955.9675
 30
0.0
 10
-1791.8428
 20
-951.5627
 30
0.0
 10
-1784.6659
 20
-949.2418
 30
0.0
 10
-1777.5375
 20
-947.4793
 30
0.0
 10
-1769.9704
 20
-947.0273
 30
0.0
 10
-1767.6234
 20
-946.8871
 30
0.0
 10
-1765.0188
 20
-946.5711
 30
0.0
 10
-1762.684
 20
-946.5787
 30
0.0
 10
-1759.9655
 20
-946.5875
 30
0.0
 10
-1756.9445
 20
-946.945
 30
0.0
 10
-1754.2175
 20
-947.1234
 30
0.0
 10
-1752.2064
 20
-947.2549
 30
0.0
 10
-1750.1969
 20
-947.4266
 30
0.0
 10
-1748.1895
 20
-947.6341
 30
0.0
 10
-1747.763
 20
-933.8936
 30
0.0
 10
-1747.01
 20
-909.6387
 30
0.0
 10
-1745.681
 20
-866.8233
 30
0.0
 10
-1746.0262
 20
-866.793
 30
0.0
 10
-1746.3715
 20
-866.7627
 30
0.0
 10
-1746.7167
 20
-866.7324
 30
0.0
 10
-1747.3781
 20
-858.0831
 30
0.0
 10
-1753.4292
 20
-855.3619
 30
0.0
 10
-1760.9217
 20
-853.7814
 30
0.0
 10
-1766.1414
 20
-852.6803
 30
0.0
 10
-1771.0721
 20
-852.8543
 30
0.0
 10
-1775.1338
 20
-853.6741
 30
0.0
 10
-1786.9556
 20
-856.0607
 30
0.0
 10
-1788.5493
 20
-862.3657
 30
0.0
 10
-1789.9214
 20
-873.5688
 30
0.0
 10
-1809.7995
 20
-872.6045
 30
0.0
 10
-1829.6407
 20
-871.5209
 30
0.0
 10
-1849.432
 20
-870.2768
 30
0.0
  0
SPLINE
  5
74
330
1F
100
AcDbEntity
  8
Layer 1
 62
   250
370
    20
100
AcDbSpline
210
0.0
220
0.0
230
1.0
 70
    11
 71
     3
 72
    44
 73
    40
 74
     0
 42
0.0000000001
 43
0.0000000001
 40
0.0
 40
0.0
 40
0.0
 40
0.0
 40
0.0769230769230769
 40
0.0769230769230769
 40
0.0769230769230769
 40
0.1538461538461539
 40
0.1538461538461539
 40
0.1538461538461539
 40
0.2307692307692308
 40
0.2307692307692308
 40
0.2307692307692308
 40
0.3076923076923077
 40
0.3076923076923077
 40
0.3076923076923077
 40
0.3846153846153846
 40
0.3846153846153846
 40
0.3846153846153846
 40
0.4615384615384616
 40
0.4615384615384616
 40
0.4615384615384616
 40
0.5384615384615385
 40
0.5384615384615385
 40
0.5384615384615385
 40
0.6153846153846154
 40
0.6153846153846154
 40
0.6153846153846154
 40
0.6923076923076923
 40
0.6923076923076923
 40
0.6923076923076923
 40
0.7692307692307693
 40
0.7692307692307693
 40
0.7692307692307693
 40
0.8461538461538463
 40
0.8461538461538463
 40
0.8461538461538463
 40
0.9230769230769231
 40
0.9230769230769231
 40
0.9230769230769231
 40
1.0
 40
1.0
 40
1.0
 40
1.0
 10
-2014.0664
 20
-870.2768
 30
0.0
 10
-2008.1384
 20
-901.3799
 30
0.0
 10
-2005.3081
 20
-930.3874
 30
0.0
 10
-2005.5754
 20
-957.2994
 30
0.0
 10
-2002.1585
 20
-957.8652
 30
0.0
 10
-1998.7243
 20
-958.317
 30
0.0
 10
-1995.3298
 20
-958.6367
 30
0.0
 10
-1980.7119
 20
-960.0136
 30
0.0
 10
-1970.0983
 20
-955.9675
 30
0.0
 10
-1956.4772
 20
-951.5627
 30
0.0
 10
-1949.3003
 20
-949.2418
 30
0.0
 10
-1942.1719
 20
-947.4793
 30
0.0
 10
-1934.6048
 20
-947.0273
 30
0.0
 10
-1932.2578
 20
-946.8871
 30
0.0
 10
-1929.6532
 20
-946.5711
 30
0.0
 10
-1927.3184
 20
-946.5787
 30
0.0
 10
-1924.5999
 20
-946.5875
 30
0.0
 10
-1921.5789
 20
-946.945
 30
0.0
 10
-1918.8519
 20
-947.1234
 30
0.0
 10
-1916.8408
 20
-947.2549
 30
0.0
 10
-1914.8313
 20
-947.4266
 30
0.0
 10
-1912.8239
 20
-947.6341
 30
0.0
 10
-1912.3974
 20
-933.8936
 30
0.0
 10
-1911.6444
 20
-909.6387
 30
0.0
 10
-1910.3154
 20
-866.8233
 30
0.0
 10
-1910.6606
 20
-866.793
 30
0.0
 10
-1911.0059
 20
-866.7627
 30
0.0
 10
-1911.3511
 20
-866.7324
 30
0.0
 10
-1912.0125
 20
-858.0831
 30
0.0
 10
-1918.0636
 20
-855.3619
 30
0.0
 10
-1925.5561
 20
-853.7814
 30
0.0
 10
-1930.7758
 20
-852.6803
 30
0.0
 10
-1935.7065
 20
-852.8543
 30
0.0
 10
-1939.7682
 20
-853.6741
 30
0.0
 10
-1951.59
 20
-856.0607
 30
0.0
 10
-1953.1837
 20
-862.3657
 30
0.0
 10
-1954.5558
 20
-873.5688
 30
0.0
 10
-1974.4339
 20
-872.6045
 30
0.0
 10
-1994.2751
 20
-871.5209
 30
0.0
 10
-2014.0664
 20
-870.2768
 30
0.0
  0
SPLINE
  5
75
330
1F
100
AcDbEntity
  8
Layer 1
 62
   250
370
    20
100
AcDbSpline
210
0.0
220
0.0
230
1.0
 70
    11
 71
     3
 72
    44
 73
    40
 74
     0
 42
0.0000000001
 43
0.0000000001
 40
0.0
 40
0.0
 40
0.0
 40
0.0
 40
0.0769230769230769
 40
0.0769230769230769
 40
0.0769230769230769
 40
0.1538461538461539
 40
0.1538461538461539
 40
0.1538461538461539
 40
0.2307692307692308
 40
0.2307692307692308
 40
0.2307692307692308
 40
0.3076923076923077
 40
0.3076923076923077
 40
0.3076923076923077
 40
0.3846153846153846
 40
0.3846153846153846
 40
0.3846153846153846
 40
0.4615384615384616
 40
0.4615384615384616
 40
0.4615384615384616
 40
0.5384615384615385
 40
0.5384615384615385
 40
0.5384615384615385
 40
0.6153846153846154
 40
0.6153846153846154
 40
0.6153846153846154
 40
0.6923076923076923
 40
0.6923076923076923
 40
0.6923076923076923
 40
0.7692307692307693
 40
0.7692307692307693
 40
0.7692307692307693
 40
0.8461538461538463
 40
0.8461538461538463
 40
0.8461538461538463
 40
0.9230769230769231
 40
0.9230769230769231
 40
0.9230769230769231
 40
1.0
 40
1.0
 40
1.0
 40
1.0
 10
-2214.9762
 20
-870.2768
 30
0.0
 10
-2209.0482
 20
-901.3799
 30
0.0
 10
-2206.2179
 20
-930.3874
 30
0.0
 10
-2206.4852
 20
-957.2994
 30
0.0
 10
-2203.0683
 20
-957.8652
 30
0.0
 10
-2199.6341
 20
-958.317
 30
0.0
 10
-2196.2396
 20
-958.6367
 30
0.0
 10
-2181.6217
 20
-960.0136
 30
0.0
 10
-2171.0081
 20
-955.9675
 30
0.0
 10
-2157.387
 20
-951.5627
 30
0.0
 10
-2150.2101
 20
-949.2418
 30
0.0
 10
-2143.0817
 20
-947.4793
 30
0.0
 10
-2135.5146
 20
-947.0273
 30
0.0
 10
-2133.1676
 20
-946.8871
 30
0.0
 10
-2130.563
 20
-946.5711
 30
0.0
 10
-2128.2282
 20
-946.5787
 30
0.0
 10
-2125.5097
 20
-946.5875
 30
0.0
 10
-2122.4887
 20
-946.945
 30
0.0
 10
-2119.7617
 20
-947.1234
 30
0.0
 10
-2117.7506
 20
-947.2549
 30
0.0
 10
-2115.7411
 20
-947.4266
 30
0.0
 10
-2113.7337
 20
-947.6341
 30
0.0
 10
-2113.3072
 20
-933.8936
 30
0.0
 10
-2112.5542
 20
-909.6387
 30
0.0
 10
-2111.2252
 20
-866.8233
 30
0.0
 10
-2111.5704
 20
-866.793
 30
0.0
 10
-2111.9157
 20
-866.7627
 30
0.0
 10
-2112.2609
 20
-866.7324
 30
0.0
 10
-2112.9223
 20
-858.0831
 30
0.0
 10
-2118.9734
 20
-855.3619
 30
0.0
 10
-2126.4659
 20
-853.7814
 30
0.0
 10
-2131.6856
 20
-852.6803
 30
0.0
 10
-2136.6163
 20
-852.8543
 30
0.0
 10
-2140.678
 20
-853.6741
 30
0.0
 10
-2152.4998
 20
-856.0607
 30
0.0
 10
-2154.0935
 20
-862.3657
 30
0.0
 10
-2155.4656
 20
-873.5688
 30
0.0
 10
-2175.3437
 20
-872.6045
 30
0.0
 10
-2195.1849
 20
-871.5209
 30
0.0
 10
-2214.9762
 20
-870.2768
 30
0.0
  0
SPLINE
  5
76
330
1F
100
AcDbEntity
  8
Layer 1
 62
   250
370
    20
100
AcDbSpline
210
0.0
220
0.0
230
1.0
 70
    11
 71
     3
 72
    44
 73
    40
 74
     0
 42
0.0000000001
 43
0.0000000001
 40
0.0
 40
0.0
 40
0.0
 40
0.0
 40
0.0769230769230769
 40
0.0769230769230769
 40
0.0769230769230769
 40
0.1538461538461539
 40
0.1538461538461539
 40
0.1538461538461539
 40
0.2307692307692308
 40
0.2307692307692308
 40
0.2307692307692308
 40
0.3076923076923077
 40
0.3076923076923077
 40
0.3076923076923077
 40
0.3846153846153846
 40
0.3846153846153846
 40
0.3846153846153846
 40
0.4615384615384616
 40
0.4615384615384616
 40
0.4615384615384616
 40
0.5384615384615385
 40
0.5384615384615385
 40
0.5384615384615385
 40
0.6153846153846154
 40
0.6153846153846154
 40
0.6153846153846154
 40
0.6923076923076923
 40
0.6923076923076923
 40
0.6923076923076923
 40
0.7692307692307693
 40
0.7692307692307693
 40
0.7692307692307693
 40
0.8461538461538463
 40
0.8461538461538463
 40
0.8461538461538463
 40
0.9230769230769231
 40
0.9230769230769231
 40
0.9230769230769231
 40
1.0
 40
1.0
 40
1.0
 40
1.0
 10
-2379.6106
 20
-870.2768
 30
0.0
 10
-2373.6826
 20
-901.3799
 30
0.0
 10
-2370.8523
 20
-930.3874
 30
0.0
 10
-2371.1196
 20
-957.2994
 30
0.0
 10
-2367.7027
 20
-957.8652
 30
0.0
 10
-2364.2685
 20
-958.317
 30
0.0
 10
-2360.874
 20
-958.6367
 30
0.0
 10
-2346.2561
 20
-960.0136
 30
0.0
 10
-2335.6425
 20
-955.9675
 30
0.0
 10
-2322.0214
 20
-951.5627
 30
0.0
 10
-2314.8445
 20
-949.2418
 30
0.0
 10
-2307.7161
 20
-947.4793
 30
0.0
 10
-2300.149
 20
-947.0273
 30
0.0
 10
-2297.802
 20
-946.8871
 30
0.0
 10
-2295.1974
 20
-946.5711
 30
0.0
 10
-2292.8626
 20
-946.5787
 30
0.0
 10
-2290.1441
 20
-946.5875
 30
0.0
 10
-2287.1231
 20
-946.945
 30
0.0
 10
-2284.3961
 20
-947.1234
 30
0.0
 10
-2282.385
 20
-947.2549
 30
0.0
 10
-2280.3755
 20
-947.4266
 30
0.0
 10
-2278.3681
 20
-947.6341
 30
0.0
 10
-2277.9416
 20
-933.8936
 30
0.0
 10
-2277.1886
 20
-909.6387
 30
0.0
 10
-2275.8596
 20
-866.8233
 30
0.0
 10
-2276.2048
 20
-866.793
 30
0.0
 10
-2276.5501
 20
-866.7627
 30
0.0
 10
-2276.8953
 20
-866.7324
 30
0.0
 10
-2277.5567
 20
-858.0831
 30
0.0
 10
-2283.6078
 20
-855.3619
 30
0.0
 10
-2291.1003
 20
-853.7814
 30
0.0
 10
-2296.32
 20
-852.6803
 30
0.0
 10
-2301.2507
 20
-852.8543
 30
0.0
 10
-2305.3124
 20
-853.6741
 30
0.0
 10
-2317.1342
 20
-856.0607
 30
0.0
 10
-2318.7279
 20
-862.3657
 30
0.0
 10
-2320.1
 20
-873.5688
 30
0.0
 10
-2339.9781
 20
-872.6045
 30
0.0
 10
-2359.8193
 20
-871.5209
 30
0.0
 10
-2379.6106
 20
-870.2768
 30
0.0
  0
SPLINE
  5
77
330
1F
100
AcDbEntity
  8
Layer 1
 62
   250
370
    20
100
AcDbSpline
210
0.0
220
0.0
230
1.0
 70
    11
 71
     3
 72
    44
 73
    40
 74
     0
 42
0.0000000001
 43
0.0000000001
 40
0.0
 40
0.0
 40
0.0
 40
0.0
 40
0.0769230769230769
 40
0.0769230769230769
 40
0.0769230769230769
 40
0.1538461538461539
 40
0.1538461538461539
 40
0.1538461538461539
 40
0.2307692307692308
 40
0.2307692307692308
 40
0.2307692307692308
 40
0.3076923076923077
 40
0.3076923076923077
 40
0.3076923076923077
 40
0.3846153846153846
 40
0.3846153846153846
 40
0.3846153846153846
 40
0.4615384615384616
 40
0.4615384615384616
 40
0.4615384615384616
 40
0.5384615384615385
 40
0.5384615384615385
 40
0.5384615384615385
 40
0.6153846153846154
 40
0.6153846153846154
 40
0.6153846153846154
 40
0.6923076923076923
 40
0.6923076923076923
 40
0.6923076923076923
 40
0.7692307692307693
 40
0.7692307692307693
 40
0.7692307692307693
 40
0.8461538461538463
 40
0.8461538461538463
 40
0.8461538461538463
 40
0.9230769230769231
 40
0.9230769230769231
 40
0.9230769230769231
 40
1.0
 40
1.0
 40
1.0
 40
1.0
 10
-2275.8596
 20
-1059.75
 30
0.0
 10
-2281.7876
 20
-1090.8531
 30
0.0
 10
-2284.6179
 20
-1119.8606
 30
0.0
 10
-2284.3506
 20
-1146.7726
 30
0.0
 10
-2287.7675
 20
-1147.3384
 30
0.0
 10
-2291.2017
 20
-1147.7902
 30
0.0
 10
-2294.5962
 20
-1148.1099
 30
0.0
 10
-2309.2141
 20
-1149.4868
 30
0.0
 10
-2319.8277
 20
-1145.4407
 30
0.0
 10
-2333.4488
 20
-1141.0359
 30
0.0
 10
-2340.6257
 20
-1138.715
 30
0.0
 10
-2347.7541
 20
-1136.9525
 30
0.0
 10
-2355.3212
 20
-1136.5005
 30
0.0
 10
-2357.6682
 20
-1136.3603
 30
0.0
 10
-2360.2728
 20
-1136.0443
 30
0.0
 10
-2362.6076
 20
-1136.0519
 30
0.0
 10
-2365.3261
 20
-1136.0607
 30
0.0
 10
-2368.3471
 20
-1136.4182
 30
0.0
 10
-2371.0741
 20
-1136.5966
 30
0.0
 10
-2373.0852
 20
-1136.7281
 30
0.0
 10
-2375.0947
 20
-1136.8998
 30
0.0
 10
-2377.1021
 20
-1137.1073
 30
0.0
 10
-2377.5286
 20
-1123.3668
 30
0.0
 10
-2378.2816
 20
-1099.1119
 30
0.0
 10
-2379.6106
 20
-1056.2965
 30
0.0
 10
-2379.2654
 20
-1056.2662
 30
0.0
 10
-2378.9201
 20
-1056.2359
 30
0.0
 10
-2378.5749
 20
-1056.2056
 30
0.0
 10
-2377.9135
 20
-1047.5563
 30
0.0
 10
-2371.8624
 20
-1044.8351
 30
0.0
 10
-2364.3699
 20
-1043.2546
 30
0.0
 10
-2359.1502
 20
-1042.1535
 30
0.0
 10
-2354.2195
 20
-1042.3275
 30
0.0
 10
-2350.1578
 20
-1043.1473
 30
0.0
 10
-2338.336
 20
-1045.5339
 30
0.0
 10
-2336.7423
 20
-1051.8389
 30
0.0
 10
-2335.3702
 20
-1063.042
 30
0.0
 10
-2315.4921
 20
-1062.0777
 30
0.0
 10
-2295.6509
 20
-1060.9941
 30
0.0
 10
-2275.8596
 20
-1059.75
 30
0.0
  0
SPLINE
  5
78
330
1F
100
AcDbEntity
  8
Layer 1
 62
   250
370
    20
100
AcDbSpline
210
0.0
220
0.0
230
1.0
 70
    11
 71
     3
 72
    44
 73
    40
 74
     0
 42
0.0000000001
 43
0.0000000001
 40
0.0
 40
0.0
 40
0.0
 40
0.0
 40
0.0769230769230769
 40
0.0769230769230769
 40
0.0769230769230769
 40
0.1538461538461539
 40
0.1538461538461539
 40
0.1538461538461539
 40
0.2307692307692308
 40
0.2307692307692308
 40
0.2307692307692308
 40
0.3076923076923077
 40
0.3076923076923077
 40
0.3076923076923077
 40
0.3846153846153846
 40
0.3846153846153846
 40
0.3846153846153846
 40
0.4615384615384616
 40
0.4615384615384616
 40
0.4615384615384616
 40
0.5384615384615385
 40
0.5384615384615385
 40
0.5384615384615385
 40
0.6153846153846154
 40
0.6153846153846154
 40
0.6153846153846154
 40
0.6923076923076923
 40
0.6923076923076923
 40
0.6923076923076923
 40
0.7692307692307693
 40
0.7692307692307693
 40
0.7692307692307693
 40
0.8461538461538463
 40
0.8461538461538463
 40
0.8461538461538463
 40
0.9230769230769231
 40
0.9230769230769231
 40
0.9230769230769231
 40
1.0
 40
1.0
 40
1.0
 40
1.0
 10
-2111.2252
 20
-1059.75
 30
0.0
 10
-2117.1532
 20
-1090.8531
 30
0.0
 10
-2119.9835
 20
-1119.8606
 30
0.0
 10
-2119.7162
 20
-1146.7726
 30
0.0
 10
-2123.1331
 20
-1147.3384
 30
0.0
 10
-2126.5673
 20
-1147.7902
 30
0.0
 10
-2129.9618
 20
-1148.1099
 30
0.0
 10
-2144.5797
 20
-1149.4868
 30
0.0
 10
-2155.1933
 20
-1145.4407
 30
0.0
 10
-2168.8144
 20
-1141.0359
 30
0.0
 10
-2175.9913
 20
-1138.715
 30
0.0
 10
-2183.1197
 20
-1136.9525
 30
0.0
 10
-2190.6868
 20
-1136.5005
 30
0.0
 10
-2193.0338
 20
-1136.3603
 30
0.0
 10
-2195.6384
 20
-1136.0443
 30
0.0
 10
-2197.9732
 20
-1136.0519
 30
0.0
 10
-2200.6917
 20
-1136.0607
 30
0.0
 10
-2203.7127
 20
-1136.4182
 30
0.0
 10
-2206.4397
 20
-1136.5966
 30
0.0
 10
-2208.4508
 20
-1136.7281
 30
0.0
 10
-2210.4603
 20
-1136.8998
 30
0.0
 10
-2212.4677
 20
-1137.1073
 30
0.0
 10
-2212.8942
 20
-1123.3668
 30
0.0
 10
-2213.6472
 20
-1099.1119
 30
0.0
 10
-2214.9762
 20
-1056.2965
 30
0.0
 10
-2214.631
 20
-1056.2662
 30
0.0
 10
-2214.2857
 20
-1056.2359
 30
0.0
 10
-2213.9405
 20
-1056.2056
 30
0.0
 10
-2213.2791
 20
-1047.5563
 30
0.0
 10
-2207.228
 20
-1044.8351
 30
0.0
 10
-2199.7355
 20
-1043.2546
 30
0.0
 10
-2194.5158
 20
-1042.1535
 30
0.0
 10
-2189.5851
 20
-1042.3275
 30
0.0
 10
-2185.5234
 20
-1043.1473
 30
0.0
 10
-2173.7016
 20
-1045.5339
 30
0.0
 10
-2172.1079
 20
-1051.8389
 30
0.0
 10
-2170.7358
 20
-1063.042
 30
0.0
 10
-2150.8577
 20
-1062.0777
 30
0.0
 10
-2131.0165
 20
-1060.9941
 30
0.0
 10
-2111.2252
 20
-1059.75
 30
0.0
  0
SPLINE
  5
79
330
1F
100
AcDbEntity
  8
Layer 1
 62
   250
370
    20
100
AcDbSpline
210
0.0
220
0.0
230
1.0
 70
    11
 71
     3
 72
    44
 73
    40
 74
     0
 42
0.0000000001
 43
0.0000000001
 40
0.0
 40
0.0
 40
0.0
 40
0.0
 40
0.0769230769230769
 40
0.0769230769230769
 40
0.0769230769230769
 40
0.1538461538461539
 40
0.1538461538461539
 40
0.1538461538461539
 40
0.2307692307692308
 40
0.2307692307692308
 40
0.2307692307692308
 40
0.3076923076923077
 40
0.3076923076923077
 40
0.3076923076923077
 40
0.3846153846153846
 40
0.3846153846153846
 40
0.3846153846153846
 40
0.4615384615384616
 40
0.4615384615384616
 40
0.4615384615384616
 40
0.5384615384615385
 40
0.5384615384615385
 40
0.5384615384615385
 40
0.6153846153846154
 40
0.6153846153846154
 40
0.6153846153846154
 40
0.6923076923076923
 40
0.6923076923076923
 40
0.6923076923076923
 40
0.7692307692307693
 40
0.7692307692307693
 40
0.7692307692307693
 40
0.8461538461538463
 40
0.8461538461538463
 40
0.8461538461538463
 40
0.9230769230769231
 40
0.9230769230769231
 40
0.9230769230769231
 40
1.0
 40
1.0
 40
1.0
 40
1.0
 10
-1910.3154
 20
-1059.75
 30
0.0
 10
-1916.2434
 20
-1090.8531
 30
0.0
 10
-1919.0737
 20
-1119.8606
 30
0.0
 10
-1918.8064
 20
-1146.7726
 30
0.0
 10
-1922.2233
 20
-1147.3384
 30
0.0
 10
-1925.6575
 20
-1147.7902
 30
0.0
 10
-1929.052
 20
-1148.1099
 30
0.0
 10
-1943.6699
 20
-1149.4868
 30
0.0
 10
-1954.2835
 20
-1145.4407
 30
0.0
 10
-1967.9046
 20
-1141.0359
 30
0.0
 10
-1975.0815
 20
-1138.715
 30
0.0
 10
-1982.2099
 20
-1136.9525
 30
0.0
 10
-1989.777
 20
-1136.5005
 30
0.0
 10
-1992.124
 20
-1136.3603
 30
0.0
 10
-1994.7286
 20
-1136.0443
 30
0.0
 10
-1997.0634
 20
-1136.0519
 30
0.0
 10
-1999.7819
 20
-1136.0607
 30
0.0
 10
-2002.8029
 20
-1136.4182
 30
0.0
 10
-2005.5299
 20
-1136.5966
 30
0.0
 10
-2007.541
 20
-1136.7281
 30
0.0
 10
-2009.5505
 20
-1136.8998
 30
0.0
 10
-2011.5579
 20
-1137.1073
 30
0.0
 10
-2011.9844
 20
-1123.3668
 30
0.0
 10
-2012.7374
 20
-1099.1119
 30
0.0
 10
-2014.0664
 20
-1056.2965
 30
0.0
 10
-2013.7212
 20
-1056.2662
 30
0.0
 10
-2013.3759
 20
-1056.2359
 30
0.0
 10
-2013.0307
 20
-1056.2056
 30
0.0
 10
-2012.3693
 20
-1047.5563
 30
0.0
 10
-2006.3182
 20
-1044.8351
 30
0.0
 10
-1998.8257
 20
-1043.2546
 30
0.0
 10
-1993.606
 20
-1042.1535
 30
0.0
 10
-1988.6753
 20
-1042.3275
 30
0.0
 10
-1984.6136
 20
-1043.1473
 30
0.0
 10
-1972.7918
 20
-1045.5339
 30
0.0
 10
-1971.1981
 20
-1051.8389
 30
0.0
 10
-1969.826
 20
-1063.042
 30
0.0
 10
-1949.9479
 20
-1062.0777
 30
0.0
 10
-1930.1067
 20
-1060.9941
 30
0.0
 10
-1910.3154
 20
-1059.75
 30
0.0
  0
SPLINE
  5
7A
330
1F
100
AcDbEntity
  8
Layer 1
 62
   250
370
    20
100
AcDbSpline
210
0.0
220
0.0
230
1.0
 70
    11
 71
     3
 72
    44
 73
    40
 74
     0
 42
0.0000000001
 43
0.0000000001
 40
0.0
 40
0.0
 40
0.0
 40
0.0
 40
0.0769230769230769
 40
0.0769230769230769
 40
0.0769230769230769
 40
0.1538461538461539
 40
0.1538461538461539
 40
0.1538461538461539
 40
0.2307692307692308
 40
0.2307692307692308
 40
0.2307692307692308
 40
0.3076923076923077
 40
0.3076923076923077
 40
0.3076923076923077
 40
0.3846153846153846
 40
0.3846153846153846
 40
0.3846153846153846
 40
0.4615384615384616
 40
0.4615384615384616
 40
0.4615384615384616
 40
0.5384615384615385
 40
0.5384615384615385
 40
0.5384615384615385
 40
0.6153846153846154
 40
0.6153846153846154
 40
0.6153846153846154
 40
0.6923076923076923
 40
0.6923076923076923
 40
0.6923076923076923
 40
0.7692307692307693
 40
0.7692307692307693
 40
0.7692307692307693
 40
0.8461538461538463
 40
0.8461538461538463
 40
0.8461538461538463
 40
0.9230769230769231
 40
0.9230769230769231
 40
0.9230769230769231
 40
1.0
 40
1.0
 40
1.0
 40
1.0
 10
-1745.681
 20
-1059.75
 30
0.0
 10
-1751.609
 20
-1090.8531
 30
0.0
 10
-1754.4393
 20
-1119.8606
 30
0.0
 10
-1754.172
 20
-1146.7726
 30
0.0
 10
-1757.5889
 20
-1147.3384
 30
0.0
 10
-1761.0231
 20
-1147.7902
 30
0.0
 10
-1764.4176
 20
-1148.1099
 30
0.0
 10
-1779.0355
 20
-1149.4868
 30
0.0
 10
-1789.6491
 20
-1145.4407
 30
0.0
 10
-1803.2702
 20
-1141.0359
 30
0.0
 10
-1810.4471
 20
-1138.715
 30
0.0
 10
-1817.5755
 20
-1136.9525
 30
0.0
 10
-1825.1426
 20
-1136.5005
 30
0.0
 10
-1827.4896
 20
-1136.3603
 30
0.0
 10
-1830.0942
 20
-1136.0443
 30
0.0
 10
-1832.429
 20
-1136.0519
 30
0.0
 10
-1835.1475
 20
-1136.0607
 30
0.0
 10
-1838.1685
 20
-1136.4182
 30
0.0
 10
-1840.8955
 20
-1136.5966
 30
0.0
 10
-1842.9066
 20
-1136.7281
 30
0.0
 10
-1844.9161
 20
-1136.8998
 30
0.0
 10
-1846.9235
 20
-1137.1073
 30
0.0
 10
-1847.35
 20
-1123.3668
 30
0.0
 10
-1848.103
 20
-1099.1119
 30
0.0
 10
-1849.432
 20
-1056.2965
 30
0.0
 10
-1849.0868
 20
-1056.2662
 30
0.0
 10
-1848.7415
 20
-1056.2359
 30
0.0
 10
-1848.3963
 20
-1056.2056
 30
0.0
 10
-1847.7349
 20
-1047.5563
 30
0.0
 10
-1841.6838
 20
-1044.8351
 30
0.0
 10
-1834.1913
 20
-1043.2546
 30
0.0
 10
-1828.9716
 20
-1042.1535
 30
0.0
 10
-1824.0409
 20
-1042.3275
 30
0.0
 10
-1819.9792
 20
-1043.1473
 30
0.0
 10
-1808.1574
 20
-1045.5339
 30
0.0
 10
-1806.5637
 20
-1051.8389
 30
0.0
 10
-1805.1916
 20
-1063.042
 30
0.0
 10
-1785.3135
 20
-1062.0777
 30
0.0
 10
-1765.4723
 20
-1060.9941
 30
0.0
 10
-1745.681
 20
-1059.75
 30
0.0
  0
SPLINE
  5
7B
330
1F
100
AcDbEntity
  8
Layer 1
 62
   250
370
    20
100
AcDbSpline
210
0.0
220
0.0
230
1.0
 70
    11
 71
     3
 72
    44
 73
    40
 74
     0
 42
0.0000000001
 43
0.0000000001
 40
0.0
 40
0.0
 40
0.0
 40
0.0
 40
0.0769230769230769
 40
0.0769230769230769
 40
0.0769230769230769
 40
0.1538461538461539
 40
0.1538461538461539
 40
0.1538461538461539
 40
0.2307692307692308
 40
0.2307692307692308
 40
0.2307692307692308
 40
0.3076923076923077
 40
0.3076923076923077
 40
0.3076923076923077
 40
0.3846153846153846
 40
0.3846153846153846
 40
0.3846153846153846
 40
0.4615384615384616
 40
0.4615384615384616
 40
0.4615384615384616
 40
0.5384615384615385
 40
0.5384615384615385
 40
0.5384615384615385
 40
0.6153846153846154
 40
0.6153846153846154
 40
0.6153846153846154
 40
0.6923076923076923
 40
0.6923076923076923
 40
0.6923076923076923
 40
0.7692307692307693
 40
0.7692307692307693
 40
0.7692307692307693
 40
0.8461538461538463
 40
0.8461538461538463
 40
0.8461538461538463
 40
0.9230769230769231
 40
0.9230769230769231
 40
0.9230769230769231
 40
1.0
 40
1.0
 40
1.0
 40
1.0
 10
-1544.7712
 20
-1059.75
 30
0.0
 10
-1550.6992
 20
-1090.8531
 30
0.0
 10
-1553.5295
 20
-1119.8606
 30
0.0
 10
-1553.2622
 20
-1146.7726
 30
0.0
 10
-1556.6791
 20
-1147.3384
 30
0.0
 10
-1560.1133
 20
-1147.7902
 30
0.0
 10
-1563.5078
 20
-1148.1099
 30
0.0
 10
-1578.1257
 20
-1149.4868
 30
0.0
 10
-1588.7393
 20
-1145.4407
 30
0.0
 10
-1602.3604
 20
-1141.0359
 30
0.0
 10
-1609.5373
 20
-1138.715
 30
0.0
 10
-1616.6657
 20
-1136.9525
 30
0.0
 10
-1624.2328
 20
-1136.5005
 30
0.0
 10
-1626.5798
 20
-1136.3603
 30
0.0
 10
-1629.1844
 20
-1136.0443
 30
0.0
 10
-1631.5192
 20
-1136.0519
 30
0.0
 10
-1634.2377
 20
-1136.0607
 30
0.0
 10
-1637.2587
 20
-1136.4182
 30
0.0
 10
-1639.9857
 20
-1136.5966
 30
0.0
 10
-1641.9968
 20
-1136.7281
 30
0.0
 10
-1644.0063
 20
-1136.8998
 30
0.0
 10
-1646.0137
 20
-1137.1073
 30
0.0
 10
-1646.4402
 20
-1123.3668
 30
0.0
 10
-1647.1932
 20
-1099.1119
 30
0.0
 10
-1648.5222
 20
-1056.2965
 30
0.0
 10
-1648.177
 20
-1056.2662
 30
0.0
 10
-1647.8317
 20
-1056.2359
 30
0.0
 10
-1647.4865
 20
-1056.2056
 30
0.0
 10
-1646.8251
 20
-1047.5563
 30
0.0
 10
-1640.774
 20
-1044.8351
 30
0.0
 10
-1633.2815
 20
-1043.2546
 30
0.0
 10
-1628.0618
 20
-1042.1535
 30
0.0
 10
-1623.1311
 20
-1042.3275
 30
0.0
 10
-1619.0694
 20
-1043.1473
 30
0.0
 10
-1607.2476
 20
-1045.5339
 30
0.0
 10
-1605.6539
 20
-1051.8389
 30
0.0
 10
-1604.2818
 20
-1063.042
 30
0.0
 10
-1584.4037
 20
-1062.0777
 30
0.0
 10
-1564.5625
 20
-1060.9941
 30
0.0
 10
-1544.7712
 20
-1059.75
 30
0.0
  0
SPLINE
  5
7C
330
1F
100
AcDbEntity
  8
Layer 1
 62
   250
370
    20
100
AcDbSpline
210
0.0
220
0.0
230
1.0
 70
    11
 71
     3
 72
    44
 73
    40
 74
     0
 42
0.0000000001
 43
0.0000000001
 40
0.0
 40
0.0
 40
0.0
 40
0.0
 40
0.0769230769230769
 40
0.0769230769230769
 40
0.0769230769230769
 40
0.1538461538461539
 40
0.1538461538461539
 40
0.1538461538461539
 40
0.2307692307692308
 40
0.2307692307692308
 40
0.2307692307692308
 40
0.3076923076923077
 40
0.3076923076923077
 40
0.3076923076923077
 40
0.3846153846153846
 40
0.3846153846153846
 40
0.3846153846153846
 40
0.4615384615384616
 40
0.4615384615384616
 40
0.4615384615384616
 40
0.5384615384615385
 40
0.5384615384615385
 40
0.5384615384615385
 40
0.6153846153846154
 40
0.6153846153846154
 40
0.6153846153846154
 40
0.6923076923076923
 40
0.6923076923076923
 40
0.6923076923076923
 40
0.7692307692307693
 40
0.7692307692307693
 40
0.7692307692307693
 40
0.8461538461538463
 40
0.8461538461538463
 40
0.8461538461538463
 40
0.9230769230769231
 40
0.9230769230769231
 40
0.9230769230769231
 40
1.0
 40
1.0
 40
1.0
 40
1.0
 10
-1380.1368
 20
-1059.75
 30
0.0
 10
-1386.0648
 20
-1090.8531
 30
0.0
 10
-1388.8951
 20
-1119.8606
 30
0.0
 10
-1388.6278
 20
-1146.7726
 30
0.0
 10
-1392.0447
 20
-1147.3384
 30
0.0
 10
-1395.4789
 20
-1147.7902
 30
0.0
 10
-1398.8734
 20
-1148.1099
 30
0.0
 10
-1413.4913
 20
-1149.4868
 30
0.0
 10
-1424.1049
 20
-1145.4407
 30
0.0
 10
-1437.726
 20
-1141.0359
 30
0.0
 10
-1444.9029
 20
-1138.715
 30
0.0
 10
-1452.0313
 20
-1136.9525
 30
0.0
 10
-1459.5984
 20
-1136.5005
 30
0.0
 10
-1461.9454
 20
-1136.3603
 30
0.0
 10
-1464.55
 20
-1136.0443
 30
0.0
 10
-1466.8848
 20
-1136.0519
 30
0.0
 10
-1469.6033
 20
-1136.0607
 30
0.0
 10
-1472.6243
 20
-1136.4182
 30
0.0
 10
-1475.3513
 20
-1136.5966
 30
0.0
 10
-1477.3624
 20
-1136.7281
 30
0.0
 10
-1479.3719
 20
-1136.8998
 30
0.0
 10
-1481.3793
 20
-1137.1073
 30
0.0
 10
-1481.8058
 20
-1123.3668
 30
0.0
 10
-1482.5588
 20
-1099.1119
 30
0.0
 10
-1483.8878
 20
-1056.2965
 30
0.0
 10
-1483.5426
 20
-1056.2662
 30
0.0
 10
-1483.1973
 20
-1056.2359
 30
0.0
 10
-1482.8521
 20
-1056.2056
 30
0.0
 10
-1482.1907
 20
-1047.5563
 30
0.0
 10
-1476.1396
 20
-1044.8351
 30
0.0
 10
-1468.6471
 20
-1043.2546
 30
0.0
 10
-1463.4274
 20
-1042.1535
 30
0.0
 10
-1458.4967
 20
-1042.3275
 30
0.0
 10
-1454.435
 20
-1043.1473
 30
0.0
 10
-1442.6132
 20
-1045.5339
 30
0.0
 10
-1441.0195
 20
-1051.8389
 30
0.0
 10
-1439.6474
 20
-1063.042
 30
0.0
 10
-1419.7693
 20
-1062.0777
 30
0.0
 10
-1399.9281
 20
-1060.9941
 30
0.0
 10
-1380.1368
 20
-1059.75
 30
0.0
  0
SPLINE
  5
7D
330
1F
100
AcDbEntity
  8
Layer 1
 62
   250
370
    20
100
AcDbSpline
210
0.0
220
0.0
230
1.0
 70
    11
 71
     3
 72
    44
 73
    40
 74
     0
 42
0.0000000001
 43
0.0000000001
 40
0.0
 40
0.0
 40
0.0
 40
0.0
 40
0.0769230769230769
 40
0.0769230769230769
 40
0.0769230769230769
 40
0.1538461538461539
 40
0.1538461538461539
 40
0.1538461538461539
 40
0.2307692307692308
 40
0.2307692307692308
 40
0.2307692307692308
 40
0.3076923076923077
 40
0.3076923076923077
 40
0.3076923076923077
 40
0.3846153846153846
 40
0.3846153846153846
 40
0.3846153846153846
 40
0.4615384615384616
 40
0.4615384615384616
 40
0.4615384615384616
 40
0.5384615384615385
 40
0.5384615384615385
 40
0.5384615384615385
 40
0.6153846153846154
 40
0.6153846153846154
 40
0.6153846153846154
 40
0.6923076923076923
 40
0.6923076923076923
 40
0.6923076923076923
 40
0.7692307692307693
 40
0.7692307692307693
 40
0.7692307692307693
 40
0.8461538461538463
 40
0.8461538461538463
 40
0.8461538461538463
 40
0.9230769230769231
 40
0.9230769230769231
 40
0.9230769230769231
 40
1.0
 40
1.0
 40
1.0
 40
1.0
 10
-1179.227
 20
-1059.75
 30
0.0
 10
-1185.155
 20
-1090.8531
 30
0.0
 10
-1187.9853
 20
-1119.8606
 30
0.0
 10
-1187.718
 20
-1146.7726
 30
0.0
 10
-1191.1349
 20
-1147.3384
 30
0.0
 10
-1194.5691
 20
-1147.7902
 30
0.0
 10
-1197.9636
 20
-1148.1099
 30
0.0
 10
-1212.5815
 20
-1149.4868
 30
0.0
 10
-1223.1951
 20
-1145.4407
 30
0.0
 10
-1236.8162
 20
-1141.0359
 30
0.0
 10
-1243.9931
 20
-1138.715
 30
0.0
 10
-1251.1215
 20
-1136.9525
 30
0.0
 10
-1258.6886
 20
-1136.5005
 30
0.0
 10
-1261.0356
 20
-1136.3603
 30
0.0
 10
-1263.6402
 20
-1136.0443
 30
0.0
 10
-1265.975
 20
-1136.0519
 30
0.0
 10
-1268.6935
 20
-1136.0607
 30
0.0
 10
-1271.7145
 20
-1136.4182
 30
0.0
 10
-1274.4415
 20
-1136.5966
 30
0.0
 10
-1276.4526
 20
-1136.7281
 30
0.0
 10
-1278.4621
 20
-1136.8998
 30
0.0
 10
-1280.4695
 20
-1137.1073
 30
0.0
 10
-1280.896
 20
-1123.3668
 30
0.0
 10
-1281.649
 20
-1099.1119
 30
0.0
 10
-1282.978
 20
-1056.2965
 30
0.0
 10
-1282.6328
 20
-1056.2662
 30
0.0
 10
-1282.2875
 20
-1056.2359
 30
0.0
 10
-1281.9423
 20
-1056.2056
 30
0.0
 10
-1281.2809
 20
-1047.5563
 30
0.0
 10
-1275.2298
 20
-1044.8351
 30
0.0
 10
-1267.7373
 20
-1043.2546
 30
0.0
 10
-1262.5176
 20
-1042.1535
 30
0.0
 10
-1257.5869
 20
-1042.3275
 30
0.0
 10
-1253.5252
 20
-1043.1473
 30
0.0
 10
-1241.7034
 20
-1045.5339
 30
0.0
 10
-1240.1097
 20
-1051.8389
 30
0.0
 10
-1238.7376
 20
-1063.042
 30
0.0
 10
-1218.8595
 20
-1062.0777
 30
0.0
 10
-1199.0183
 20
-1060.9941
 30
0.0
 10
-1179.227
 20
-1059.75
 30
0.0
  0
SPLINE
  5
7E
330
1F
100
AcDbEntity
  8
Layer 1
 62
   250
370
    20
100
AcDbSpline
210
0.0
220
0.0
230
1.0
 70
    11
 71
     3
 72
    44
 73
    40
 74
     0
 42
0.0000000001
 43
0.0000000001
 40
0.0
 40
0.0
 40
0.0
 40
0.0
 40
0.0769230769230769
 40
0.0769230769230769
 40
0.0769230769230769
 40
0.1538461538461539
 40
0.1538461538461539
 40
0.1538461538461539
 40
0.2307692307692308
 40
0.2307692307692308
 40
0.2307692307692308
 40
0.3076923076923077
 40
0.3076923076923077
 40
0.3076923076923077
 40
0.3846153846153846
 40
0.3846153846153846
 40
0.3846153846153846
 40
0.4615384615384616
 40
0.4615384615384616
 40
0.4615384615384616
 40
0.5384615384615385
 40
0.5384615384615385
 40
0.5384615384615385
 40
0.6153846153846154
 40
0.6153846153846154
 40
0.6153846153846154
 40
0.6923076923076923
 40
0.6923076923076923
 40
0.6923076923076923
 40
0.7692307692307693
 40
0.7692307692307693
 40
0.7692307692307693
 40
0.8461538461538463
 40
0.8461538461538463
 40
0.8461538461538463
 40
0.9230769230769231
 40
0.9230769230769231
 40
0.9230769230769231
 40
1.0
 40
1.0
 40
1.0
 40
1.0
 10
-1014.5926
 20
-1059.75
 30
0.0
 10
-1020.5206
 20
-1090.8531
 30
0.0
 10
-1023.3509
 20
-1119.8606
 30
0.0
 10
-1023.0836
 20
-1146.7726
 30
0.0
 10
-1026.5005
 20
-1147.3384
 30
0.0
 10
-1029.9347
 20
-1147.7902
 30
0.0
 10
-1033.3292
 20
-1148.1099
 30
0.0
 10
-1047.9471
 20
-1149.4868
 30
0.0
 10
-1058.5607
 20
-1145.4407
 30
0.0
 10
-1072.1818
 20
-1141.0359
 30
0.0
 10
-1079.3587
 20
-1138.715
 30
0.0
 10
-1086.4871
 20
-1136.9525
 30
0.0
 10
-1094.0542
 20
-1136.5005
 30
0.0
 10
-1096.4012
 20
-1136.3603
 30
0.0
 10
-1099.0058
 20
-1136.0443
 30
0.0
 10
-1101.3406
 20
-1136.0519
 30
0.0
 10
-1104.0591
 20
-1136.0607
 30
0.0
 10
-1107.0801
 20
-1136.4182
 30
0.0
 10
-1109.8071
 20
-1136.5966
 30
0.0
 10
-1111.8182
 20
-1136.7281
 30
0.0
 10
-1113.8277
 20
-1136.8998
 30
0.0
 10
-1115.8351
 20
-1137.1073
 30
0.0
 10
-1116.2616
 20
-1123.3668
 30
0.0
 10
-1117.0146
 20
-1099.1119
 30
0.0
 10
-1118.3436
 20
-1056.2965
 30
0.0
 10
-1117.9984
 20
-1056.2662
 30
0.0
 10
-1117.6531
 20
-1056.2359
 30
0.0
 10
-1117.3079
 20
-1056.2056
 30
0.0
 10
-1116.6465
 20
-1047.5563
 30
0.0
 10
-1110.5954
 20
-1044.8351
 30
0.0
 10
-1103.1029
 20
-1043.2546
 30
0.0
 10
-1097.8832
 20
-1042.1535
 30
0.0
 10
-1092.9525
 20
-1042.3275
 30
0.0
 10
-1088.8908
 20
-1043.1473
 30
0.0
 10
-1077.069
 20
-1045.5339
 30
0.0
 10
-1075.4753
 20
-1051.8389
 30
0.0
 10
-1074.1032
 20
-1063.042
 30
0.0
 10
-1054.2251
 20
-1062.0777
 30
0.0
 10
-1034.3839
 20
-1060.9941
 30
0.0
 10
-1014.5926
 20
-1059.75
 30
0.0
  0
SPLINE
  5
7F
330
1F
100
AcDbEntity
  8
Layer 1
 62
   250
370
    20
100
AcDbSpline
210
0.0
220
0.0
230
1.0
 70
    11
 71
     3
 72
    35
 73
    31
 74
     0
 42
0.0000000001
 43
0.0000000001
 40
0.0
 40
0.0
 40
0.0
 40
0.0
 40
0.1
 40
0.1
 40
0.1
 40
0.2
 40
0.2
 40
0.2
 40
0.3
 40
0.3
 40
0.3
 40
0.4
 40
0.4
 40
0.4
 40
0.5
 40
0.5
 40
0.5
 40
0.6000000000000001
 40
0.6000000000000001
 40
0.6000000000000001
 40
0.7000000000000001
 40
0.7000000000000001
 40
0.7000000000000001
 40
0.8
 40
0.8
 40
0.8
 40
0.9
 40
0.9
 40
0.9
 40
1.0
 40
1.0
 40
1.0
 40
1.0
 10
-1022.2609
 20
-575.4847
 30
0.0
 10
-1022.7279
 20
-574.5607
 30
0.0
 10
-1023.195
 20
-573.6367
 30
0.0
 10
-1023.6621
 20
-572.7127
 30
0.0
 10
-1027.6378
 20
-564.8481
 30
0.0
 10
-1032.024
 20
-556.9012
 30
0.0
 10
-1035.7414
 20
-548.9334
 30
0.0
 10
-1039.9012
 20
-540.0176
 30
0.0
 10
-1043.5039
 20
-530.385
 30
0.0
 10
-1047.2294
 20
-521.2675
 30
0.0
 10
-1050.582
 20
-513.0628
 30
0.0
 10
-1053.7614
 20
-504.7855
 30
0.0
 10
-1056.7358
 20
-496.4358
 30
0.0
 10
-1059.4378
 20
-496.5308
 30
0.0
 10
-1062.1295
 20
-496.6985
 30
0.0
 10
-1064.7812
 20
-496.9425
 30
0.0
 10
-1078.8807
 20
-498.2401
 30
0.0
 10
-1088.3631
 20
-504.1092
 30
0.0
 10
-1100.5007
 20
-510.7156
 30
0.0
 10
-1107.3532
 20
-514.4454
 30
0.0
 10
-1114.2592
 20
-517.5818
 30
0.0
 10
-1121.8653
 20
-519.4862
 30
0.0
 10
-1128.9346
 20
-521.2561
 30
0.0
 10
-1136.2037
 20
-522.3538
 30
0.0
 10
-1143.5609
 20
-522.9751
 30
0.0
 10
-1144.6097
 20
-546.5736
 30
0.0
 10
-1145.343
 20
-563.0724
 30
0.0
 10
-1145.8557
 20
-574.6076
 30
0.0
 10
-1104.9258
 20
-573.5906
 30
0.0
 10
-1063.3721
 20
-575.1955
 30
0.0
 10
-1022.2609
 20
-575.4847
 30
0.0
  0
ENDSEC
  0
SECTION
  2
OBJECTS
  0
DICTIONARY
  5
C
330
0
100
AcDbDictionary
281
     1
  3
ACAD_DETAILVIEWSTYLE
350
87
  3
ACAD_GROUP
350
D
  3
ACAD_LAYOUT
350
1A
  3
ACAD_MATERIAL
350
43
  3
ACAD_MLEADERSTYLE
350
5B
  3
ACAD_MLINESTYLE
350
17
  3
ACAD_PLOTSETTINGS
350
19
  3
ACAD_PLOTSTYLENAME
350
E
  3
ACAD_SCALELIST
350
47
  3
ACAD_SECTIONVIEWSTYLE
350
88
  3
ACAD_TABLESTYLE
350
59
  3
ACAD_VISUALSTYLE
350
2A
  3
ACDB_RECOMPOSE_DATA
350
84
  3
AcDbVariableDictionary
350
80
  0
SUN
  5
5D
330
29
100
AcDbSun
 90
        1
290
     0
 63
     7
421
 16777215
 40
1.0
291
     1
 91
  2455826
 92
 54000000
292
     0
 70
     2
 71
   256
280
     1
  0
DICTIONARY
  5
87
102
{ACAD_REACTORS
330
C
102
}
330
C
100
AcDbDictionary
281
     1
  0
DICTIONARY
  5
D
102
{ACAD_REACTORS
330
C
102
}
330
C
100
AcDbDictionary
281
     1
  0
DICTIONARY
  5
1A
102
{ACAD_REACTORS
330
C
102
}
330
C
100
AcDbDictionary
281
     1
  3
Layout1
350
1E
  3
Layout2
350
26
  3
Model
350
22
  0
DICTIONARY
  5
43
102
{ACAD_REACTORS
330
C
102
}
330
C
100
AcDbDictionary
281
     1
  3
ByBlock
350
45
  3
ByLayer
350
44
  3
Global
350
46
  0
DICTIONARY
  5
5B
102
{ACAD_REACTORS
330
C
102
}
330
C
100
AcDbDictionary
281
     1
  3
Standard
350
5C
  0
DICTIONARY
  5
17
102
{ACAD_REACTORS
330
C
102
}
330
C
100
AcDbDictionary
281
     1
  3
Standard
350
18
  0
DICTIONARY
  5
19
102
{ACAD_REACTORS
330
C
102
}
330
C
100
AcDbDictionary
281
     1
  0
ACDBDICTIONARYWDFLT
  5
E
102
{ACAD_REACTORS
330
C
102
}
330
C
100
AcDbDictionary
281
     1
  3
Normal
350
F
100
AcDbDictionaryWithDefault
340
F
  0
DICTIONARY
  5
47
102
{ACAD_REACTORS
330
C
102
}
330
C
100
AcDbDictionary
281
     1
  3
A0
350
48
  3
A1
350
49
  3
A2
350
4A
  3
A3
350
4B
  3
A4
350
4C
  3
A5
350
4D
  3
A6
350
4E
  3
A7
350
4F
  3
A8
350
50
  3
A9
350
51
  3
B1
350
52
  3
B2
350
53
  3
B3
350
54
  3
B4
350
55
  3
B5
350
56
  3
B6
350
57
  3
B7
350
58
  0
DICTIONARY
  5
88
102
{ACAD_REACTORS
330
C
102
}
330
C
100
AcDbDictionary
281
     1
  0
DICTIONARY
  5
59
102
{ACAD_REACTORS
330
C
102
}
330
C
100
AcDbDictionary
281
     1
  3
Standard
350
5A
  0
DICTIONARY
  5
2A
102
{ACAD_REACTORS
330
C
102
}
330
C
100
AcDbDictionary
281
     1
  3
2dWireframe
350
2F
  3
Basic
350
32
  3
Brighten
350
36
  3
ColorChange
350
3A
  3
Conceptual
350
34
  3
Dim
350
35
  3
EdgeColorOff
350
3D
  3
Facepattern
350
39
  3
Flat
350
2B
  3
FlatWithEdges
350
2C
  3
Gouraud
350
2D
  3
GouraudWithEdges
350
2E
  3
Hidden
350
31
  3
JitterOff
350
3B
  3
Linepattern
350
38
  3
OverhangOff
350
3C
  3
Realistic
350
33
  3
Shaded
350
42
  3
Shaded with edges
350
41
  3
Shades of Gray
350
3E
  3
Sketchy
350
3F
  3
Thicken
350
37
  3
Wireframe
350
30
  3
X-Ray
350
40
  0
XRECORD
  5
84
102
{ACAD_REACTORS
330
C
102
}
330
C
100
AcDbXrecord
280
     1
 90
        1
330
5A
  0
DICTIONARY
  5
80
102
{ACAD_REACTORS
330
C
102
}
330
C
100
AcDbDictionary
281
     1
  3
CANNOSCALE
350
81
  3
CMLEADERSTYLE
350
86
  3
CTABLESTYLE
350
85
  0
LAYOUT
  5
1E
102
{ACAD_REACTORS
330
1A
102
}
330
1A
100
AcDbPlotSettings
  1

  2
none_device
  4

  6

 40
0.0
 41
0.0
 42
0.0
 43
0.0
 44
0.0
 45
0.0
 46
0.0
 47
0.0
 48
0.0
 49
0.0
140
0.0
141
0.0
142
1.0
143
1.0
 70
   688
 72
     0
 73
     0
 74
     5
  7

 75
    16
 76
     0
 77
     2
 78
   300
147
1.0
148
0.0
149
0.0
100
AcDbLayout
  1
Layout1
 70
     1
 71
     1
 10
0.0
 20
0.0
 11
12.0
 21
9.0
 12
0.0
 22
0.0
 32
0.0
 14
1.000000000000000E+20
 24
1.000000000000000E+20
 34
1.000000000000000E+20
 15
-1.000000000000000E+20
 25
-1.000000000000000E+20
 35
-1.000000000000000E+20
146
0.0
 13
0.0
 23
0.0
 33
0.0
 16
1.0
 26
0.0
 36
0.0
 17
0.0
 27
1.0
 37
0.0
 76
     0
330
1B
  0
LAYOUT
  5
26
102
{ACAD_REACTORS
330
1A
102
}
330
1A
100
AcDbPlotSettings
  1

  2
none_device
  4

  6

 40
0.0
 41
0.0
 42
0.0
 43
0.0
 44
0.0
 45
0.0
 46
0.0
 47
0.0
 48
0.0
 49
0.0
140
0.0
141
0.0
142
1.0
143
1.0
 70
   688
 72
     0
 73
     0
 74
     5
  7

 75
    16
 76
     0
 77
     2
 78
   300
147
1.0
148
0.0
149
0.0
100
AcDbLayout
  1
Layout2
 70
     1
 71
     2
 10
0.0
 20
0.0
 11
0.0
 21
0.0
 12
0.0
 22
0.0
 32
0.0
 14
0.0
 24
0.0
 34
0.0
 15
0.0
 25
0.0
 35
0.0
146
0.0
 13
0.0
 23
0.0
 33
0.0
 16
1.0
 26
0.0
 36
0.0
 17
0.0
 27
1.0
 37
0.0
 76
     0
330
23
  0
LAYOUT
  5
22
102
{ACAD_REACTORS
330
1A
102
}
330
1A
100
AcDbPlotSettings
  1

  2
none_device
  4
Letter_(8.50_x_11.00_Inches)
  6

 40
6.35
 41
6.35
 42
6.35000508
 43
6.35000508
 44
215.9
 45
279.4
 46
0.0
 47
0.0
 48
0.0
 49
0.0
140
0.0
141
0.0
142
1.0
143
1.0
 70
  1712
 72
     0
 73
     0
 74
     0
  7

 75
     0
 76
     0
 77
     2
 78
   300
147
1.0
148
0.0
149
0.0
100
AcDbLayout
  1
Model
 70
     1
 71
     0
 10
0.0
 20
0.0
 11
12.0
 21
9.0
 12
0.0
 22
0.0
 32
0.0
 14
-2505.4956
 24
-1148.4819
 34
0.0
 15
-1014.4703
 25
-496.3333
 35
0.0
146
0.0
 13
0.0
 23
0.0
 33
0.0
 16
1.0
 26
0.0
 36
0.0
 17
0.0
 27
1.0
 37
0.0
 76
     0
330
1F
331
29
  0
MATERIAL
  5
45
102
{ACAD_REACTORS
330
43
102
}
330
43
100
AcDbMaterial
  1
ByBlock
 72
     1
 94
      127
  0
MATERIAL
  5
44
102
{ACAD_REACTORS
330
43
102
}
330
43
100
AcDbMaterial
  1
ByLayer
 72
     1
 94
      127
  0
MATERIAL
  5
46
102
{ACAD_REACTORS
330
43
102
}
330
43
100
AcDbMaterial
  1
Global
 72
     1
 94
      127
  0
MLEADERSTYLE
  5
5C
102
{ACAD_REACTORS
330
5B
102
}
330
5B
100
AcDbMLeaderStyle
179
     2
170
     2
171
     1
172
     0
 90
        2
 40
0.0
 41
0.0
173
     1
 91
-1056964608
340
14
 92
       -2
290
     1
 42
0.09
291
     1
 43
0.36
  3
Standard
341
0
 44
0.18
300

342
11
174
     1
178
     6
175
     1
176
     0
 93
-1056964608
 45
0.18
292
     0
297
     0
 46
0.18
343
0
 94
-1056964608
 47
1.0
 49
1.0
140
1.0
293
     1
141
0.0
294
     1
177
     0
142
1.0
295
     0
296
     0
143
0.125
271
     0
272
     9
273
     9
298
     0
  0
MLINESTYLE
  5
18
102
{ACAD_REACTORS
330
17
102
}
330
17
100
AcDbMlineStyle
  2
Standard
 70
     0
  3

 62
   256
 51
90.0
 52
90.0
 71
     2
 49
0.5
 62
   256
  6
BYLAYER
 49
-0.5
 62
   256
  6
BYLAYER
  0
ACDBPLACEHOLDER
  5
F
102
{ACAD_REACTORS
330
E
102
}
330
E
  0
SCALE
  5
48
102
{ACAD_REACTORS
330
47
102
}
330
47
100
AcDbScale
 70
     0
300
1:1
140
1.0
141
1.0
290
     1
  0
SCALE
  5
49
102
{ACAD_REACTORS
330
47
102
}
330
47
100
AcDbScale
 70
     0
300
1/128" = 1'-0"
140
0.0078125
141
12.0
290
     0
  0
SCALE
  5
4A
102
{ACAD_REACTORS
330
47
102
}
330
47
100
AcDbScale
 70
     0
300
1/64" = 1'-0"
140
0.015625
141
12.0
290
     0
  0
SCALE
  5
4B
102
{ACAD_REACTORS
330
47
102
}
330
47
100
AcDbScale
 70
     0
300
1/32" = 1'-0"
140
0.03125
141
12.0
290
     0
  0
SCALE
  5
4C
102
{ACAD_REACTORS
330
47
102
}
330
47
100
AcDbScale
 70
     0
300
1/16" = 1'-0"
140
0.0625
141
12.0
290
     0
  0
SCALE
  5
4D
102
{ACAD_REACTORS
330
47
102
}
330
47
100
AcDbScale
 70
     0
300
3/32" = 1'-0"
140
0.09375
141
12.0
290
     0
  0
SCALE
  5
4E
102
{ACAD_REACTORS
330
47
102
}
330
47
100
AcDbScale
 70
     0
300
1/8" = 1'-0"
140
0.125
141
12.0
290
     0
  0
SCALE
  5
4F
102
{ACAD_REACTORS
330
47
102
}
330
47
100
AcDbScale
 70
     0
300
3/16" = 1'-0"
140
0.1875
141
12.0
290
     0
  0
SCALE
  5
50
102
{ACAD_REACTORS
330
47
102
}
330
47
100
AcDbScale
 70
     0
300
1/4" = 1'-0"
140
0.25
141
12.0
290
     0
  0
SCALE
  5
51
102
{ACAD_REACTORS
330
47
102
}
330
47
100
AcDbScale
 70
     0
300
3/8" = 1'-0"
140
0.375
141
12.0
290
     0
  0
SCALE
  5
52
102
{ACAD_REACTORS
330
47
102
}
330
47
100
AcDbScale
 70
     0
300
1/2" = 1'-0"
140
0.5
141
12.0
290
     0
  0
SCALE
  5
53
102
{ACAD_REACTORS
330
47
102
}
330
47
100
AcDbScale
 70
     0
300
3/4" = 1'-0"
140
0.75
141
12.0
290
     0
  0
SCALE
  5
54
102
{ACAD_REACTORS
330
47
102
}
330
47
100
AcDbScale
 70
     0
300
1" = 1'-0"
140
1.0
141
12.0
290
     0
  0
SCALE
  5
55
102
{ACAD_REACTORS
330
47
102
}
330
47
100
AcDbScale
 70
     0
300
1-1/2" = 1'-0"
140
1.5
141
12.0
290
     0
  0
SCALE
  5
56
102
{ACAD_REACTORS
330
47
102
}
330
47
100
AcDbScale
 70
     0
300
3" = 1'-0"
140
3.0
141
12.0
290
     0
  0
SCALE
  5
57
102
{ACAD_REACTORS
330
47
102
}
330
47
100
AcDbScale
 70
     0
300
6" = 1'-0"
140
6.0
141
12.0
290
     0
  0
SCALE
  5
58
102
{ACAD_REACTORS
330
47
102
}
330
47
100
AcDbScale
 70
     0
300
1'-0" = 1'-0"
140
12.0
141
12.0
290
     0
  0
TABLESTYLE
  5
5A
102
{ACAD_REACTORS
330
59
102
}
102
{ACAD_XDICTIONARY
360
82
102
}
330
59
100
AcDbTableStyle
  3
Standard
 70
     0
 71
     0
 40
0.06
 41
0.06
280
     0
281
     0
  7
Standard
140
0.18
170
     2
 62
     0
 63
   257
283
     0
 90
        4
 91
        0
  1

274
    -2
284
     1
 64
     0
275
    -2
285
     1
 65
     0
276
    -2
286
     1
 66
     0
277
    -2
287
     1
 67
     0
278
    -2
288
     1
 68
     0
279
    -2
289
     1
 69
     0
  7
Standard
140
0.25
170
     5
 62
     0
 63
   257
283
     0
 90
        4
 91
        0
  1

274
    -2
284
     1
 64
     0
275
    -2
285
     1
 65
     0
276
    -2
286
     1
 66
     0
277
    -2
287
     1
 67
     0
278
    -2
288
     1
 68
     0
279
    -2
289
     1
 69
     0
  7
Standard
140
0.18
170
     5
 62
     0
 63
   257
283
     0
 90
        4
 91
        0
  1

274
    -2
284
     1
 64
     0
275
    -2
285
     1
 65
     0
276
    -2
286
     1
 66
     0
277
    -2
287
     1
 67
     0
278
    -2
288
     1
 68
     0
279
    -2
289
     1
 69
     0
  0
VISUALSTYLE
  5
2F
102
{ACAD_REACTORS
330
2A
102
}
330
2A
100
AcDbVisualStyle
  2
2dWireframe
 70
     4
177
     3
291
     0
 70
    58
 90
        0
176
     1
 90
        2
176
     1
 90
        0
176
     1
 90
        0
176
     1
 40
0.6
176
     1
 40
30.0
176
     1
 62
     7
420
 16777215
176
     1
 90
        1
176
     1
 90
        4
176
     1
 62
     7
176
     1
 62
   257
176
     1
 90
        1
176
     1
 90
        1
176
     1
 40
1.0
176
     1
 90
        0
176
     1
 62
   257
176
     1
 40
1.0
176
     1
 90
        1
176
     1
 90
        6
176
     1
 90
        2
176
     1
 62
     7
176
     1
 90
        5
176
     1
 90
        0
176
     1
 90
        0
176
     1
290
     0
176
     1
 90
        1
176
     1
 40
0.0
176
     1
 90
        0
176
     1
290
     1
176
     1
290
     1
176
     1
290
     0
176
     1
290
     0
176
     1
290
     0
176
     1
290
     0
176
     1
290
     0
176
     1
290
     0
176
     1
290
     0
176
     1
 90
       50
176
     1
 40
0.0
176
     1
 40
1.0
176
     1
 90
        0
176
     1
 62
    18
420
        0
176
     1
 90
       50
176
     1
 90
        3
176
     1
 62
     5
420
      255
176
     1
290
     0
176
     1
 90
       50
176
     1
 90
       50
176
     1
 90
       50
176
     1
290
     0
176
     1
 90
       50
176
     1
 62
   256
176
     0
 40
1.0
176
     0
 90
        2
176
     1
  1
strokes_ogs.tif
176
     1
290
     0
176
     1
 40
1.0
176
     1
 40
1.0
176
     1
  0
VISUALSTYLE
  5
32
102
{ACAD_REACTORS
330
2A
102
}
330
2A
100
AcDbVisualStyle
  2
Basic
 70
     7
177
     3
291
     1
 70
    58
 90
        1
176
     1
 90
        0
176
     1
 90
        1
176
     1
 90
        0
176
     1
 40
0.6
176
     1
 40
30.0
176
     1
 62
     7
420
 16777215
176
     1
 90
        0
176
     1
 90
        4
176
     1
 62
     7
176
     1
 62
   257
176
     1
 90
        1
176
     1
 90
        1
176
     1
 40
1.0
176
     1
 90
        8
176
     1
 62
     7
176
     1
 40
1.0
176
     1
 90
        1
176
     1
 90
        6
176
     1
 90
        2
176
     1
 62
     7
176
     1
 90
        5
176
     1
 90
        0
176
     1
 90
        0
176
     1
290
     0
176
     1
 90
        1
176
     1
 40
0.0
176
     1
 90
        0
176
     1
290
     0
176
     1
290
     1
176
     1
290
     1
176
     1
290
     0
176
     1
290
     0
176
     1
290
     0
176
     1
290
     0
176
     1
290
     0
176
     1
290
     0
176
     1
 90
       50
176
     1
 40
0.0
176
     1
 40
1.0
176
     1
 90
        0
176
     1
 62
    18
420
        0
176
     1
 90
       50
176
     1
 90
        3
176
     1
 62
     5
420
      255
176
     1
290
     0
176
     1
 90
       50
176
     1
 90
       50
176
     1
 90
       50
176
     1
290
     0
176
     1
 90
       50
176
     1
 62
   256
176
     0
 40
1.0
176
     0
 90
        2
176
     1
  1
strokes_ogs.tif
176
     1
290
     0
176
     1
 40
1.0
176
     1
 40
1.0
176
     1
  0
VISUALSTYLE
  5
36
102
{ACAD_REACTORS
330
2A
102
}
330
2A
100
AcDbVisualStyle
  2
Brighten
 70
    12
177
     3
291
     1
 70
    58
 90
        2
176
     1
 90
        2
176
     1
 90
        0
176
     1
 90
        0
176
     1
 40
0.6
176
     1
 40
30.0
176
     1
 62
     7
420
 16777215
176
     1
 90
        1
176
     1
 90
        4
176
     1
 62
     7
176
     1
 62
   257
176
     1
 90
        1
176
     1
 90
        1
176
     1
 40
1.0
176
     1
 90
        8
176
     1
 62
     7
176
     1
 40
1.0
176
     1
 90
        1
176
     1
 90
        6
176
     1
 90
        2
176
     1
 62
     7
176
     1
 90
        5
176
     1
 90
        0
176
     1
 90
        0
176
     1
290
     0
176
     1
 90
        1
176
     1
 40
50.0
176
     1
 90
        0
176
     1
290
     0
176
     1
290
     1
176
     1
290
     1
176
     1
290
     0
176
     1
290
     0
176
     1
290
     0
176
     1
290
     0
176
     1
290
     0
176
     1
290
     0
176
     1
 90
       50
176
     1
 40
0.0
176
     1
 40
1.0
176
     1
 90
        0
176
     1
 62
    18
420
        0
176
     1
 90
       50
176
     1
 90
        3
176
     1
 62
     5
420
      255
176
     1
290
     0
176
     1
 90
       50
176
     1
 90
       50
176
     1
 90
       50
176
     1
290
     0
176
     1
 90
       50
176
     1
 62
   256
176
     0
 40
1.0
176
     0
 90
        2
176
     1
  1
strokes_ogs.tif
176
     1
290
     0
176
     1
 40
1.0
176
     1
 40
1.0
176
     1
  0
VISUALSTYLE
  5
3A
102
{ACAD_REACTORS
330
2A
102
}
330
2A
100
AcDbVisualStyle
  2
ColorChange
 70
    16
177
     3
291
     1
 70
    58
 90
        2
176
     1
 90
        2
176
     1
 90
        3
176
     1
 90
        0
176
     1
 40
0.6
176
     1
 40
30.0
176
     1
 62
     8
420
  8421504
176
     1
 90
        1
176
     1
 90
        4
176
     1
 62
     7
176
     1
 62
   257
176
     1
 90
        1
176
     1
 90
        1
176
     1
 40
1.0
176
     1
 90
        8
176
     1
 62
     8
420
  8421504
176
     1
 40
1.0
176
     1
 90
        1
176
     1
 90
        6
176
     1
 90
        2
176
     1
 62
     7
176
     1
 90
        5
176
     1
 90
        0
176
     1
 90
        0
176
     1
290
     0
176
     1
 90
        1
176
     1
 40
0.0
176
     1
 90
        0
176
     1
290
     0
176
     1
290
     1
176
     1
290
     1
176
     1
290
     0
176
     1
290
     0
176
     1
290
     0
176
     1
290
     0
176
     1
290
     0
176
     1
290
     0
176
     1
 90
       50
176
     1
 40
0.0
176
     1
 40
1.0
176
     1
 90
        0
176
     1
 62
    18
420
        0
176
     1
 90
       50
176
     1
 90
        3
176
     1
 62
     5
420
      255
176
     1
290
     0
176
     1
 90
       50
176
     1
 90
       50
176
     1
 90
       50
176
     1
290
     0
176
     1
 90
       50
176
     1
 62
   256
176
     0
 40
1.0
176
     0
 90
        2
176
     1
  1
strokes_ogs.tif
176
     1
290
     0
176
     1
 40
1.0
176
     1
 40
1.0
176
     1
  0
VISUALSTYLE
  5
34
102
{ACAD_REACTORS
330
2A
102
}
330
2A
100
AcDbVisualStyle
  2
Conceptual
 70
     9
177
     3
291
     0
 70
    58
 90
        3
176
     1
 90
        2
176
     1
 90
        0
176
     1
 90
        0
176
     1
 40
0.6
176
     1
 40
30.0
176
     1
 62
     7
420
 16777215
176
     1
 90
        2
176
     1
 90
        2
176
     1
 62
     7
176
     1
 62
   257
176
     1
 90
        1
176
     1
 90
        1
176
     1
 40
179.0
176
     1
 90
        8
176
     1
 62
     7
176
     1
 40
1.0
176
     1
 90
        1
176
     1
 90
        6
176
     1
 90
        2
176
     1
 62
     7
176
     1
 90
        3
176
     1
 90
        0
176
     1
 90
        0
176
     1
290
     0
176
     1
 90
        1
176
     1
 40
0.0
176
     1
 90
        0
176
     1
290
     0
176
     1
290
     1
176
     1
290
     1
176
     1
290
     0
176
     1
290
     0
176
     1
290
     0
176
     1
290
     0
176
     1
290
     0
176
     1
290
     0
176
     1
 90
       50
176
     1
 40
0.0
176
     1
 40
1.0
176
     1
 90
        0
176
     1
 62
    18
420
        0
176
     1
 90
       50
176
     1
 90
        3
176
     1
 62
     5
420
      255
176
     1
290
     0
176
     1
 90
       50
176
     1
 90
       50
176
     1
 90
       50
176
     1
290
     0
176
     1
 90
       50
176
     1
 62
   256
176
     0
 40
1.0
176
     0
 90
        2
176
     1
  1
strokes_ogs.tif
176
     1
290
     0
176
     1
 40
1.0
176
     1
 40
1.0
176
     1
  0
VISUALSTYLE
  5
35
102
{ACAD_REACTORS
330
2A
102
}
330
2A
100
AcDbVisualStyle
  2
Dim
 70
    11
177
     3
291
     1
 70
    58
 90
        2
176
     1
 90
        2
176
     1
 90
        0
176
     1
 90
        0
176
     1
 40
0.6
176
     1
 40
30.0
176
     1
 62
     7
420
 16777215
176
     1
 90
        1
176
     1
 90
        4
176
     1
 62
     7
176
     1
 62
   257
176
     1
 90
        1
176
     1
 90
        1
176
     1
 40
1.0
176
     1
 90
        8
176
     1
 62
     7
176
     1
 40
1.0
176
     1
 90
        1
176
     1
 90
        6
176
     1
 90
        2
176
     1
 62
     7
176
     1
 90
        5
176
     1
 90
        0
176
     1
 90
        0
176
     1
290
     0
176
     1
 90
        1
176
     1
 40
-50.0
176
     1
 90
        0
176
     1
290
     0
176
     1
290
     1
176
     1
290
     1
176
     1
290
     0
176
     1
290
     0
176
     1
290
     0
176
     1
290
     0
176
     1
290
     0
176
     1
290
     0
176
     1
 90
       50
176
     1
 40
0.0
176
     1
 40
1.0
176
     1
 90
        0
176
     1
 62
    18
420
        0
176
     1
 90
       50
176
     1
 90
        3
176
     1
 62
     5
420
      255
176
     1
290
     0
176
     1
 90
       50
176
     1
 90
       50
176
     1
 90
       50
176
     1
290
     0
176
     1
 90
       50
176
     1
 62
   256
176
     0
 40
1.0
176
     0
 90
        2
176
     1
  1
strokes_ogs.tif
176
     1
290
     0
176
     1
 40
1.0
176
     1
 40
1.0
176
     1
  0
VISUALSTYLE
  5
3D
102
{ACAD_REACTORS
330
2A
102
}
330
2A
100
AcDbVisualStyle
  2
EdgeColorOff
 70
    22
177
     3
291
     1
 70
    58
 90
        2
176
     0
 90
        2
176
     0
 90
        0
176
     0
 90
        0
176
     0
 40
0.6
176
     0
 40
30.0
176
     0
 62
     7
420
 16777215
176
     0
 90
        1
176
     0
 90
        4
176
     0
 62
     7
176
     0
 62
   257
176
     0
 90
        1
176
     0
 90
        1
176
     0
 40
1.0
176
     0
 90
        8
176
     2
 62
     7
176
     0
 40
1.0
176
     0
 90
        1
176
     0
 90
        6
176
     0
 90
        2
176
     0
 62
     7
176
     0
 90
        5
176
     0
 90
        0
176
     0
 90
        0
176
     0
290
     0
176
     0
 90
        1
176
     0
 40
0.0
176
     0
 90
        0
176
     0
290
     0
176
     0
290
     1
176
     0
290
     1
176
     0
290
     0
176
     0
290
     0
176
     0
290
     0
176
     0
290
     0
176
     0
290
     0
176
     0
290
     0
176
     0
 90
       50
176
     0
 40
0.0
176
     0
 40
1.0
176
     0
 90
        0
176
     0
 62
    18
420
        0
176
     0
 90
       50
176
     0
 90
        3
176
     0
 62
     5
420
      255
176
     0
290
     0
176
     0
 90
       50
176
     0
 90
       50
176
     0
 90
       50
176
     0
290
     0
176
     0
 90
       50
176
     0
 62
   256
176
     0
 40
1.0
176
     0
 90
        2
176
     0
  1
strokes_ogs.tif
176
     0
290
     0
176
     0
 40
1.0
176
     0
 40
1.0
176
     0
  0
VISUALSTYLE
  5
39
102
{ACAD_REACTORS
330
2A
102
}
330
2A
100
AcDbVisualStyle
  2
Facepattern
 70
    15
177
     3
291
     1
 70
    58
 90
        2
176
     1
 90
        2
176
     1
 90
        0
176
     1
 90
        0
176
     1
 40
0.6
176
     1
 40
30.0
176
     1
 62
     7
420
 16777215
176
     1
 90
        1
176
     1
 90
        4
176
     1
 62
     7
176
     1
 62
   257
176
     1
 90
        1
176
     1
 90
        1
176
     1
 40
1.0
176
     1
 90
        8
176
     1
 62
     7
176
     1
 40
1.0
176
     1
 90
        1
176
     1
 90
        6
176
     1
 90
        2
176
     1
 62
     7
176
     1
 90
        5
176
     1
 90
        0
176
     1
 90
        0
176
     1
290
     0
176
     1
 90
        1
176
     1
 40
0.0
176
     1
 90
        0
176
     1
290
     0
176
     1
290
     1
176
     1
290
     1
176
     1
290
     0
176
     1
290
     0
176
     1
290
     0
176
     1
290
     0
176
     1
290
     0
176
     1
290
     0
176
     1
 90
       50
176
     1
 40
0.0
176
     1
 40
1.0
176
     1
 90
        0
176
     1
 62
    18
420
        0
176
     1
 90
       50
176
     1
 90
        3
176
     1
 62
     5
420
      255
176
     1
290
     0
176
     1
 90
       50
176
     1
 90
       50
176
     1
 90
       50
176
     1
290
     0
176
     1
 90
       50
176
     1
 62
   256
176
     0
 40
1.0
176
     0
 90
        2
176
     1
  1
strokes_ogs.tif
176
     1
290
     0
176
     1
 40
1.0
176
     1
 40
1.0
176
     1
  0
VISUALSTYLE
  5
2B
102
{ACAD_REACTORS
330
2A
102
}
330
2A
100
AcDbVisualStyle
  2
Flat
 70
     0
177
     3
291
     1
 70
    58
 90
        2
176
     1
 90
        1
176
     1
 90
        1
176
     1
 90
        2
176
     1
 40
0.6
176
     1
 40
30.0
176
     1
 62
     7
420
 16777215
176
     1
 90
        0
176
     1
 90
        0
176
     1
 62
     7
176
     1
 62
   257
176
     1
 90
        1
176
     1
 90
        1
176
     1
 40
1.0
176
     1
 90
        8
176
     1
 62
     7
176
     1
 40
1.0
176
     1
 90
        1
176
     1
 90
        6
176
     1
 90
        2
176
     1
 62
     7
176
     1
 90
        5
176
     1
 90
        0
176
     1
 90
        0
176
     1
290
     0
176
     1
 90
       13
176
     1
 40
0.0
176
     1
 90
        0
176
     1
290
     0
176
     1
290
     1
176
     1
290
     1
176
     1
290
     0
176
     1
290
     0
176
     1
290
     0
176
     1
290
     0
176
     1
290
     0
176
     1
290
     0
176
     1
 90
       50
176
     1
 40
0.0
176
     1
 40
1.0
176
     1
 90
        0
176
     1
 62
    18
420
        0
176
     1
 90
       50
176
     1
 90
        3
176
     1
 62
     5
420
      255
176
     1
290
     0
176
     1
 90
       50
176
     1
 90
       50
176
     1
 90
       50
176
     1
290
     0
176
     1
 90
       50
176
     1
 62
   256
176
     0
 40
1.0
176
     0
 90
        2
176
     1
  1
strokes_ogs.tif
176
     1
290
     0
176
     1
 40
1.0
176
     1
 40
1.0
176
     1
  0
VISUALSTYLE
  5
2C
102
{ACAD_REACTORS
330
2A
102
}
330
2A
100
AcDbVisualStyle
  2
FlatWithEdges
 70
     1
177
     3
291
     1
 70
    58
 90
        2
176
     1
 90
        1
176
     1
 90
        1
176
     1
 90
        2
176
     1
 40
0.6
176
     1
 40
30.0
176
     1
 62
     7
420
 16777215
176
     1
 90
        1
176
     1
 90
        0
176
     1
 62
     7
176
     1
 62
   257
176
     1
 90
        1
176
     1
 90
        1
176
     1
 40
1.0
176
     1
 90
        0
176
     1
 62
   257
176
     1
 40
1.0
176
     1
 90
        1
176
     1
 90
        6
176
     1
 90
        2
176
     1
 62
     7
176
     1
 90
        5
176
     1
 90
        0
176
     1
 90
        0
176
     1
290
     0
176
     1
 90
       13
176
     1
 40
0.0
176
     1
 90
        0
176
     1
290
     0
176
     1
290
     1
176
     1
290
     1
176
     1
290
     0
176
     1
290
     0
176
     1
290
     0
176
     1
290
     0
176
     1
290
     0
176
     1
290
     0
176
     1
 90
       50
176
     1
 40
0.0
176
     1
 40
1.0
176
     1
 90
        0
176
     1
 62
    18
420
        0
176
     1
 90
       50
176
     1
 90
        3
176
     1
 62
     5
420
      255
176
     1
290
     0
176
     1
 90
       50
176
     1
 90
       50
176
     1
 90
       50
176
     1
290
     0
176
     1
 90
       50
176
     1
 62
   256
176
     0
 40
1.0
176
     0
 90
        2
176
     1
  1
strokes_ogs.tif
176
     1
290
     0
176
     1
 40
1.0
176
     1
 40
1.0
176
     1
  0
VISUALSTYLE
  5
2D
102
{ACAD_REACTORS
330
2A
102
}
330
2A
100
AcDbVisualStyle
  2
Gouraud
 70
     2
177
     3
291
     1
 70
    58
 90
        2
176
     1
 90
        2
176
     1
 90
        1
176
     1
 90
        2
176
     1
 40
0.6
176
     1
 40
30.0
176
     1
 62
     7
420
 16777215
176
     1
 90
        0
176
     1
 90
        0
176
     1
 62
     7
176
     1
 62
   257
176
     1
 90
        1
176
     1
 90
        1
176
     1
 40
1.0
176
     1
 90
        0
176
     1
 62
     7
176
     1
 40
1.0
176
     1
 90
        1
176
     1
 90
        6
176
     1
 90
        2
176
     1
 62
     7
176
     1
 90
        5
176
     1
 90
        0
176
     1
 90
        0
176
     1
290
     0
176
     1
 90
       13
176
     1
 40
0.0
176
     1
 90
        0
176
     1
290
     0
176
     1
290
     1
176
     1
290
     1
176
     1
290
     0
176
     1
290
     0
176
     1
290
     0
176
     1
290
     0
176
     1
290
     0
176
     1
290
     0
176
     1
 90
       50
176
     1
 40
0.0
176
     1
 40
1.0
176
     1
 90
        0
176
     1
 62
    18
420
        0
176
     1
 90
       50
176
     1
 90
        3
176
     1
 62
     5
420
      255
176
     1
290
     0
176
     1
 90
       50
176
     1
 90
       50
176
     1
 90
       50
176
     1
290
     0
176
     1
 90
       50
176
     1
 62
   256
176
     0
 40
1.0
176
     0
 90
        2
176
     1
  1
strokes_ogs.tif
176
     1
290
     0
176
     1
 40
1.0
176
     1
 40
1.0
176
     1
  0
VISUALSTYLE
  5
2E
102
{ACAD_REACTORS
330
2A
102
}
330
2A
100
AcDbVisualStyle
  2
GouraudWithEdges
 70
     3
177
     3
291
     1
 70
    58
 90
        2
176
     1
 90
        2
176
     1
 90
        1
176
     1
 90
        2
176
     1
 40
0.6
176
     1
 40
30.0
176
     1
 62
     7
420
 16777215
176
     1
 90
        1
176
     1
 90
        0
176
     1
 62
     7
176
     1
 62
   257
176
     1
 90
        1
176
     1
 90
        1
176
     1
 40
1.0
176
     1
 90
        0
176
     1
 62
   257
176
     1
 40
1.0
176
     1
 90
        1
176
     1
 90
        6
176
     1
 90
        2
176
     1
 62
     7
176
     1
 90
        5
176
     1
 90
        0
176
     1
 90
        0
176
     1
290
     0
176
     1
 90
       13
176
     1
 40
0.0
176
     1
 90
        0
176
     1
290
     0
176
     1
290
     1
176
     1
290
     1
176
     1
290
     0
176
     1
290
     0
176
     1
290
     0
176
     1
290
     0
176
     1
290
     0
176
     1
290
     0
176
     1
 90
       50
176
     1
 40
0.0
176
     1
 40
1.0
176
     1
 90
        0
176
     1
 62
    18
420
        0
176
     1
 90
       50
176
     1
 90
        3
176
     1
 62
     5
420
      255
176
     1
290
     0
176
     1
 90
       50
176
     1
 90
       50
176
     1
 90
       50
176
     1
290
     0
176
     1
 90
       50
176
     1
 62
   256
176
     0
 40
1.0
176
     0
 90
        2
176
     1
  1
strokes_ogs.tif
176
     1
290
     0
176
     1
 40
1.0
176
     1
 40
1.0
176
     1
  0
VISUALSTYLE
  5
31
102
{ACAD_REACTORS
330
2A
102
}
330
2A
100
AcDbVisualStyle
  2
Hidden
 70
     6
177
     3
291
     0
 70
    58
 90
        1
176
     1
 90
        2
176
     1
 90
        2
176
     1
 90
        0
176
     1
 40
0.6
176
     1
 40
30.0
176
     1
 62
     7
420
 16777215
176
     1
 90
        2
176
     1
 90
        2
176
     1
 62
     7
176
     1
 62
   257
176
     1
 90
        2
176
     1
 90
        1
176
     1
 40
40.0
176
     1
 90
        0
176
     1
 62
   257
176
     1
 40
1.0
176
     1
 90
        1
176
     1
 90
        6
176
     1
 90
        2
176
     1
 62
     7
176
     1
 90
        3
176
     1
 90
        0
176
     1
 90
        0
176
     1
290
     0
176
     1
 90
        1
176
     1
 40
0.0
176
     1
 90
        0
176
     1
290
     0
176
     1
290
     1
176
     1
290
     1
176
     1
290
     0
176
     1
290
     0
176
     1
290
     0
176
     1
290
     0
176
     1
290
     0
176
     1
290
     0
176
     1
 90
       50
176
     1
 40
0.0
176
     1
 40
1.0
176
     1
 90
        0
176
     1
 62
    18
420
        0
176
     1
 90
       50
176
     1
 90
        3
176
     1
 62
     5
420
      255
176
     1
290
     0
176
     1
 90
       50
176
     1
 90
       50
176
     1
 90
       50
176
     1
290
     0
176
     1
 90
       50
176
     1
 62
   256
176
     0
 40
1.0
176
     0
 90
        2
176
     1
  1
strokes_ogs.tif
176
     1
290
     0
176
     1
 40
1.0
176
     1
 40
1.0
176
     1
  0
VISUALSTYLE
  5
3B
102
{ACAD_REACTORS
330
2A
102
}
330
2A
100
AcDbVisualStyle
  2
JitterOff
 70
    20
177
     3
291
     1
 70
    58
 90
        2
176
     0
 90
        2
176
     0
 90
        0
176
     0
 90
        0
176
     0
 40
0.6
176
     0
 40
30.0
176
     0
 62
     7
420
 16777215
176
     0
 90
        1
176
     0
 90
        4
176
     0
 62
     7
176
     0
 62
   257
176
     0
 90
        1
176
     0
 90
        1
176
     0
 40
1.0
176
     0
 90
       10
176
     2
 62
     7
176
     0
 40
1.0
176
     0
 90
        1
176
     0
 90
        6
176
     0
 90
        2
176
     0
 62
     7
176
     0
 90
        5
176
     0
 90
        0
176
     0
 90
        0
176
     0
290
     0
176
     0
 90
        1
176
     0
 40
0.0
176
     0
 90
        0
176
     0
290
     0
176
     0
290
     1
176
     0
290
     1
176
     0
290
     0
176
     0
290
     0
176
     0
290
     0
176
     0
290
     0
176
     0
290
     0
176
     0
290
     0
176
     0
 90
       50
176
     0
 40
0.0
176
     0
 40
1.0
176
     0
 90
        0
176
     0
 62
    18
420
        0
176
     0
 90
       50
176
     0
 90
        3
176
     0
 62
     5
420
      255
176
     0
290
     0
176
     0
 90
       50
176
     0
 90
       50
176
     0
 90
       50
176
     0
290
     0
176
     0
 90
       50
176
     0
 62
   256
176
     0
 40
1.0
176
     0
 90
        2
176
     0
  1
strokes_ogs.tif
176
     0
290
     0
176
     0
 40
1.0
176
     0
 40
1.0
176
     0
  0
VISUALSTYLE
  5
38
102
{ACAD_REACTORS
330
2A
102
}
330
2A
100
AcDbVisualStyle
  2
Linepattern
 70
    14
177
     3
291
     1
 70
    58
 90
        2
176
     1
 90
        2
176
     1
 90
        0
176
     1
 90
        0
176
     1
 40
0.6
176
     1
 40
30.0
176
     1
 62
     7
420
 16777215
176
     1
 90
        1
176
     1
 90
        4
176
     1
 62
     7
176
     1
 62
   257
176
     1
 90
        7
176
     1
 90
        7
176
     1
 40
1.0
176
     1
 90
        8
176
     1
 62
     7
176
     1
 40
1.0
176
     1
 90
        1
176
     1
 90
        6
176
     1
 90
        2
176
     1
 62
     7
176
     1
 90
        5
176
     1
 90
        0
176
     1
 90
        0
176
     1
290
     0
176
     1
 90
        1
176
     1
 40
0.0
176
     1
 90
        0
176
     1
290
     0
176
     1
290
     1
176
     1
290
     1
176
     1
290
     0
176
     1
290
     0
176
     1
290
     0
176
     1
290
     0
176
     1
290
     0
176
     1
290
     0
176
     1
 90
       50
176
     1
 40
0.0
176
     1
 40
1.0
176
     1
 90
        0
176
     1
 62
    18
420
        0
176
     1
 90
       50
176
     1
 90
        3
176
     1
 62
     5
420
      255
176
     1
290
     0
176
     1
 90
       50
176
     1
 90
       50
176
     1
 90
       50
176
     1
290
     0
176
     1
 90
       50
176
     1
 62
   256
176
     0
 40
1.0
176
     0
 90
        2
176
     1
  1
strokes_ogs.tif
176
     1
290
     0
176
     1
 40
1.0
176
     1
 40
1.0
176
     1
  0
VISUALSTYLE
  5
3C
102
{ACAD_REACTORS
330
2A
102
}
330
2A
100
AcDbVisualStyle
  2
OverhangOff
 70
    21
177
     3
291
     1
 70
    58
 90
        2
176
     0
 90
        2
176
     0
 90
        0
176
     0
 90
        0
176
     0
 40
0.6
176
     0
 40
30.0
176
     0
 62
     7
420
 16777215
176
     0
 90
        1
176
     0
 90
        4
176
     0
 62
     7
176
     0
 62
   257
176
     0
 90
        1
176
     0
 90
        1
176
     0
 40
1.0
176
     0
 90
        9
176
     2
 62
     7
176
     0
 40
1.0
176
     0
 90
        1
176
     0
 90
        6
176
     0
 90
        2
176
     0
 62
     7
176
     0
 90
        5
176
     0
 90
        0
176
     0
 90
        0
176
     0
290
     0
176
     0
 90
        1
176
     0
 40
0.0
176
     0
 90
        0
176
     0
290
     0
176
     0
290
     1
176
     0
290
     1
176
     0
290
     0
176
     0
290
     0
176
     0
290
     0
176
     0
290
     0
176
     0
290
     0
176
     0
290
     0
176
     0
 90
       50
176
     0
 40
0.0
176
     0
 40
1.0
176
     0
 90
        0
176
     0
 62
    18
420
        0
176
     0
 90
       50
176
     0
 90
        3
176
     0
 62
     5
420
      255
176
     0
290
     0
176
     0
 90
       50
176
     0
 90
       50
176
     0
 90
       50
176
     0
290
     0
176
     0
 90
       50
176
     0
 62
   256
176
     0
 40
1.0
176
     0
 90
        2
176
     0
  1
strokes_ogs.tif
176
     0
290
     0
176
     0
 40
1.0
176
     0
 40
1.0
176
     0
  0
VISUALSTYLE
  5
33
102
{ACAD_REACTORS
330
2A
102
}
330
2A
100
AcDbVisualStyle
  2
Realistic
 70
     8
177
     3
291
     0
 70
    58
 90
        2
176
     1
 90
        3
176
     1
 90
        0
176
     1
 90
        2
176
     1
 40
0.6
176
     1
 40
30.0
176
     1
 62
     7
420
 16777215
176
     1
 90
        0
176
     1
 90
        0
176
     1
 62
     7
176
     1
 62
   257
176
     1
 90
        1
176
     1
 90
        1
176
     1
 40
1.0
176
     1
 90
        8
176
     1
 62
   257
176
     1
 40
1.0
176
     1
 90
        1
176
     1
 90
        6
176
     1
 90
        2
176
     1
 62
     7
176
     1
 90
        3
176
     1
 90
        0
176
     1
 90
        0
176
     1
290
     0
176
     1
 90
       13
176
     1
 40
0.0
176
     1
 90
        0
176
     1
290
     0
176
     1
290
     1
176
     1
290
     1
176
     1
290
     0
176
     1
290
     0
176
     1
290
     0
176
     1
290
     0
176
     1
290
     0
176
     1
290
     0
176
     1
 90
       50
176
     1
 40
0.0
176
     1
 40
1.0
176
     1
 90
        0
176
     1
 62
    18
420
        0
176
     1
 90
       50
176
     1
 90
        3
176
     1
 62
     5
420
      255
176
     1
290
     0
176
     1
 90
       50
176
     1
 90
       50
176
     1
 90
       50
176
     1
290
     0
176
     1
 90
       50
176
     1
 62
   256
176
     0
 40
1.0
176
     0
 90
        2
176
     1
  1
strokes_ogs.tif
176
     1
290
     0
176
     1
 40
1.0
176
     1
 40
1.0
176
     1
  0
VISUALSTYLE
  5
42
102
{ACAD_REACTORS
330
2A
102
}
330
2A
100
AcDbVisualStyle
  2
Shaded
 70
    27
177
     3
291
     0
 70
    58
 90
        2
176
     1
 90
        2
176
     1
 90
        1
176
     1
 90
        2
176
     1
 40
0.6
176
     1
 40
30.0
176
     1
 62
     7
420
 16777215
176
     1
 90
        0
176
     1
 90
        4
176
     1
 62
     7
176
     1
 62
   257
176
     1
 90
        1
176
     1
 90
        1
176
     1
 40
1.0
176
     1
 90
        8
176
     1
 62
   257
176
     1
 40
1.0
176
     1
 90
        1
176
     1
 90
        6
176
     1
 90
        2
176
     1
 62
     8
420
  7895160
176
     1
 90
        3
176
     1
 90
        0
176
     1
 90
        0
176
     1
290
     0
176
     1
 90
        5
176
     1
 40
0.0
176
     1
 90
        0
176
     1
290
     0
176
     1
290
     1
176
     1
290
     1
176
     1
290
     0
176
     1
290
     0
176
     1
290
     0
176
     1
290
     0
176
     1
290
     0
176
     1
290
     0
176
     1
 90
       50
176
     1
 40
0.0
176
     1
 40
1.0
176
     1
 90
        0
176
     1
 62
    18
420
        0
176
     1
 90
       50
176
     1
 90
        3
176
     1
 62
     5
420
      255
176
     1
290
     0
176
     1
 90
       50
176
     1
 90
       50
176
     1
 90
       50
176
     1
290
     0
176
     1
 90
       50
176
     1
 62
   256
176
     0
 40
1.0
176
     0
 90
        2
176
     1
  1
strokes_ogs.tif
176
     1
290
     0
176
     1
 40
1.0
176
     1
 40
1.0
176
     1
  0
VISUALSTYLE
  5
41
102
{ACAD_REACTORS
330
2A
102
}
330
2A
100
AcDbVisualStyle
  2
Shaded with edges
 70
    26
177
     3
291
     0
 70
    58
 90
        2
176
     1
 90
        2
176
     1
 90
        1
176
     1
 90
        2
176
     1
 40
0.6
176
     1
 40
30.0
176
     1
 62
     7
420
 16777215
176
     1
 90
        1
176
     1
 90
       10
176
     1
 62
     7
176
     1
 62
   257
176
     1
 90
        2
176
     1
 90
        1
176
     1
 40
1.0
176
     1
 90
        8
176
     1
 62
   257
176
     1
 40
1.0
176
     1
 90
        1
176
     1
 90
        6
176
     1
 90
        2
176
     1
 62
     7
176
     1
 90
        3
176
     1
 90
        0
176
     1
 90
        0
176
     1
290
     0
176
     1
 90
        5
176
     1
 40
0.0
176
     1
 90
        0
176
     1
290
     0
176
     1
290
     1
176
     1
290
     1
176
     1
290
     0
176
     1
290
     0
176
     1
290
     0
176
     1
290
     0
176
     1
290
     0
176
     1
290
     0
176
     1
 90
       50
176
     1
 40
0.0
176
     1
 40
1.0
176
     1
 90
        0
176
     1
 62
    18
420
        0
176
     1
 90
       50
176
     1
 90
        3
176
     1
 62
     5
420
      255
176
     1
290
     0
176
     1
 90
       50
176
     1
 90
       50
176
     1
 90
       50
176
     1
290
     0
176
     1
 90
       50
176
     1
 62
   256
176
     0
 40
1.0
176
     0
 90
        2
176
     1
  1
strokes_ogs.tif
176
     1
290
     0
176
     1
 40
1.0
176
     1
 40
1.0
176
     1
  0
VISUALSTYLE
  5
3E
102
{ACAD_REACTORS
330
2A
102
}
330
2A
100
AcDbVisualStyle
  2
Shades of Gray
 70
    23
177
     3
291
     0
 70
    58
 90
        2
176
     1
 90
        2
176
     1
 90
        3
176
     1
 90
        0
176
     1
 40
0.6
176
     1
 40
30.0
176
     1
 62
     7
420
 16777215
176
     1
 90
        2
176
     1
 90
        2
176
     1
 62
     7
176
     1
 62
     7
176
     1
 90
        1
176
     1
 90
        1
176
     1
 40
40.0
176
     1
 90
        8
176
     1
 62
     7
176
     1
 40
1.0
176
     1
 90
        1
176
     1
 90
        6
176
     1
 90
        2
176
     1
 62
     7
176
     1
 90
        3
176
     1
 90
        0
176
     1
 90
        0
176
     1
290
     0
176
     1
 90
        1
176
     1
 40
0.0
176
     1
 90
        0
176
     1
290
     0
176
     1
290
     1
176
     1
290
     1
176
     1
290
     0
176
     1
290
     0
176
     1
290
     0
176
     1
290
     0
176
     1
290
     0
176
     1
290
     0
176
     1
 90
       50
176
     1
 40
0.0
176
     1
 40
1.0
176
     1
 90
        0
176
     1
 62
    18
420
        0
176
     1
 90
       50
176
     1
 90
        3
176
     1
 62
     5
420
      255
176
     1
290
     0
176
     1
 90
       50
176
     1
 90
       50
176
     1
 90
       50
176
     1
290
     0
176
     1
 90
       50
176
     1
 62
   256
176
     0
 40
1.0
176
     0
 90
        2
176
     1
  1
strokes_ogs.tif
176
     1
290
     0
176
     1
 40
1.0
176
     1
 40
1.0
176
     1
  0
VISUALSTYLE
  5
3F
102
{ACAD_REACTORS
330
2A
102
}
330
2A
100
AcDbVisualStyle
  2
Sketchy
 70
    24
177
     3
291
     0
 70
    58
 90
        1
176
     1
 90
        2
176
     1
 90
        2
176
     1
 90
        0
176
     1
 40
0.6
176
     1
 40
30.0
176
     1
 62
     7
420
 16777215
176
     1
 90
        2
176
     1
 90
        2
176
     1
 62
     7
176
     1
 62
     7
176
     1
 90
        1
176
     1
 90
        1
176
     1
 40
40.0
176
     1
 90
       11
176
     1
 62
     7
176
     1
 40
1.0
176
     1
 90
        1
176
     1
 90
        6
176
     1
 90
        2
176
     1
 62
     7
176
     1
 90
        6
176
     1
 90
        0
176
     1
 90
        0
176
     1
290
     0
176
     1
 90
        1
176
     1
 40
0.0
176
     1
 90
        0
176
     1
290
     0
176
     1
290
     1
176
     1
290
     1
176
     1
290
     0
176
     1
290
     0
176
     1
290
     0
176
     1
290
     0
176
     1
290
     0
176
     1
290
     0
176
     1
 90
       50
176
     1
 40
0.0
176
     1
 40
1.0
176
     1
 90
        0
176
     1
 62
    18
420
        0
176
     1
 90
       50
176
     1
 90
        3
176
     1
 62
     5
420
      255
176
     1
290
     0
176
     1
 90
       50
176
     1
 90
       50
176
     1
 90
       50
176
     1
290
     0
176
     1
 90
       50
176
     1
 62
   256
176
     0
 40
1.0
176
     0
 90
        2
176
     1
  1
strokes_ogs.tif
176
     1
290
     0
176
     1
 40
1.0
176
     1
 40
1.0
176
     1
  0
VISUALSTYLE
  5
37
102
{ACAD_REACTORS
330
2A
102
}
330
2A
100
AcDbVisualStyle
  2
Thicken
 70
    13
177
     3
291
     1
 70
    58
 90
        2
176
     1
 90
        2
176
     1
 90
        0
176
     1
 90
        0
176
     1
 40
0.6
176
     1
 40
30.0
176
     1
 62
     7
420
 16777215
176
     1
 90
        1
176
     1
 90
        4
176
     1
 62
     7
176
     1
 62
   257
176
     1
 90
        1
176
     1
 90
        1
176
     1
 40
1.0
176
     1
 90
       12
176
     1
 62
     7
176
     1
 40
1.0
176
     1
 90
        1
176
     1
 90
        6
176
     1
 90
        2
176
     1
 62
     7
176
     1
 90
        5
176
     1
 90
        0
176
     1
 90
        0
176
     1
290
     0
176
     1
 90
        1
176
     1
 40
0.0
176
     1
 90
        0
176
     1
290
     0
176
     1
290
     1
176
     1
290
     1
176
     1
290
     0
176
     1
290
     0
176
     1
290
     0
176
     1
290
     0
176
     1
290
     0
176
     1
290
     0
176
     1
 90
       50
176
     1
 40
0.0
176
     1
 40
1.0
176
     1
 90
        0
176
     1
 62
    18
420
        0
176
     1
 90
       50
176
     1
 90
        3
176
     1
 62
     5
420
      255
176
     1
290
     0
176
     1
 90
       50
176
     1
 90
       50
176
     1
 90
       50
176
     1
290
     0
176
     1
 90
       50
176
     1
 62
   256
176
     0
 40
1.0
176
     0
 90
        2
176
     1
  1
strokes_ogs.tif
176
     1
290
     0
176
     1
 40
1.0
176
     1
 40
1.0
176
     1
  0
VISUALSTYLE
  5
30
102
{ACAD_REACTORS
330
2A
102
}
330
2A
100
AcDbVisualStyle
  2
Wireframe
 70
     5
177
     3
291
     0
 70
    58
 90
        0
176
     1
 90
        2
176
     1
 90
        0
176
     1
 90
        0
176
     1
 40
0.6
176
     1
 40
30.0
176
     1
 62
     7
420
 16777215
176
     1
 90
        1
176
     1
 90
        4
176
     1
 62
     7
176
     1
 62
   257
176
     1
 90
        1
176
     1
 90
        1
176
     1
 40
1.0
176
     1
 90
        0
176
     1
 62
   257
176
     1
 40
1.0
176
     1
 90
        1
176
     1
 90
        6
176
     1
 90
        2
176
     1
 62
     7
176
     1
 90
        3
176
     1
 90
        0
176
     1
 90
        0
176
     1
290
     0
176
     1
 90
        1
176
     1
 40
0.0
176
     1
 90
        0
176
     1
290
     0
176
     1
290
     1
176
     1
290
     1
176
     1
290
     0
176
     1
290
     0
176
     1
290
     0
176
     1
290
     0
176
     1
290
     0
176
     1
290
     0
176
     1
 90
       50
176
     1
 40
0.0
176
     1
 40
1.0
176
     1
 90
        0
176
     1
 62
    18
420
        0
176
     1
 90
       50
176
     1
 90
        3
176
     1
 62
     5
420
      255
176
     1
290
     0
176
     1
 90
       50
176
     1
 90
       50
176
     1
 90
       50
176
     1
290
     0
176
     1
 90
       50
176
     1
 62
   256
176
     0
 40
1.0
176
     0
 90
        2
176
     1
  1
strokes_ogs.tif
176
     1
290
     0
176
     1
 40
1.0
176
     1
 40
1.0
176
     1
  0
VISUALSTYLE
  5
40
102
{ACAD_REACTORS
330
2A
102
}
330
2A
100
AcDbVisualStyle
  2
X-Ray
 70
    25
177
     3
291
     0
 70
    58
 90
        2
176
     1
 90
        2
176
     1
 90
        1
176
     1
 90
        1
176
     1
 40
0.5
176
     1
 40
30.0
176
     1
 62
     7
420
 16777215
176
     1
 90
        1
176
     1
 90
        0
176
     1
 62
     7
176
     1
 62
   257
176
     1
 90
        1
176
     1
 90
        1
176
     1
 40
1.0
176
     1
 90
        8
176
     1
 62
     7
176
     1
 40
1.0
176
     1
 90
        1
176
     1
 90
        6
176
     1
 90
        2
176
     1
 62
     7
176
     1
 90
        3
176
     1
 90
        0
176
     1
 90
        0
176
     1
290
     0
176
     1
 90
       13
176
     1
 40
0.0
176
     1
 90
        0
176
     1
290
     0
176
     1
290
     1
176
     1
290
     1
176
     1
290
     0
176
     1
290
     0
176
     1
290
     0
176
     1
290
     0
176
     1
290
     0
176
     1
290
     0
176
     1
 90
       50
176
     1
 40
0.0
176
     1
 40
1.0
176
     1
 90
        0
176
     1
 62
    18
420
        0
176
     1
 90
       50
176
     1
 90
        3
176
     1
 62
     5
420
      255
176
     1
290
     0
176
     1
 90
       50
176
     1
 90
       50
176
     1
 90
       50
176
     1
290
     0
176
     1
 90
       50
176
     1
 62
   256
176
     0
 40
1.0
176
     0
 90
        2
176
     1
  1
strokes_ogs.tif
176
     1
290
     0
176
     1
 40
1.0
176
     1
 40
1.0
176
     1
  0
DICTIONARYVAR
  5
81
102
{ACAD_REACTORS
330
80
102
}
330
80
100
DictionaryVariables
280
     0
  1
1:1
  0
DICTIONARYVAR
  5
86
102
{ACAD_REACTORS
330
80
102
}
330
80
100
DictionaryVariables
280
     0
  1
Standard
  0
DICTIONARYVAR
  5
85
102
{ACAD_REACTORS
330
80
102
}
330
80
100
DictionaryVariables
280
     0
  1
Standard
  0
DICTIONARY
  5
82
330
5A
100
AcDbDictionary
280
     1
281
     1
  3
ACAD_ROUNDTRIP_2008_TABLESTYLE_CELLSTYLEMAP
360
83
  0
CELLSTYLEMAP
  5
83
102
{ACAD_REACTORS
330
82
102
}
330
82
100
AcDbCellStyleMap
 90
        3
300
CELLSTYLE
  1
TABLEFORMAT_BEGIN
 90
        5
170
     1
 91
        0
 92
    32768
 62
   257
 93
        1
300
CONTENTFORMAT
  1
CONTENTFORMAT_BEGIN
 90
        0
 91
        0
 92
        4
 93
        0
300

 40
0.0
140
1.0
 94
        5
 62
     0
340
11
144
0.25
309
CONTENTFORMAT_END
171
     1
301
MARGIN
  1
CELLMARGIN_BEGIN
 40
0.06
 40
0.06
 40
0.06
 40
0.06
 40
0.06
 40
0.06
309
CELLMARGIN_END
 94
        6
 95
        1
302
GRIDFORMAT
  1
GRIDFORMAT_BEGIN
 90
        0
 91
        1
 62
     0
 92
       -2
340
14
 93
        0
 40
0.045
309
GRIDFORMAT_END
 95
        2
302
GRIDFORMAT
  1
GRIDFORMAT_BEGIN
 90
        0
 91
        1
 62
     0
 92
       -2
340
14
 93
        0
 40
0.045
309
GRIDFORMAT_END
 95
        4
302
GRIDFORMAT
  1
GRIDFORMAT_BEGIN
 90
        0
 91
        1
 62
     0
 92
       -2
340
14
 93
        0
 40
0.045
309
GRIDFORMAT_END
 95
        8
302
GRIDFORMAT
  1
GRIDFORMAT_BEGIN
 90
        0
 91
        1
 62
     0
 92
       -2
340
14
 93
        0
 40
0.045
309
GRIDFORMAT_END
 95
       16
302
GRIDFORMAT
  1
GRIDFORMAT_BEGIN
 90
        0
 91
        1
 62
     0
 92
       -2
340
14
 93
        0
 40
0.045
309
GRIDFORMAT_END
 95
       32
302
GRIDFORMAT
  1
GRIDFORMAT_BEGIN
 90
        0
 91
        1
 62
     0
 92
       -2
340
14
 93
        0
 40
0.045
309
GRIDFORMAT_END
309
TABLEFORMAT_END
  1
CELLSTYLE_BEGIN
 90
        1
 91
        1
300
_TITLE
309
CELLSTYLE_END
300
CELLSTYLE
  1
TABLEFORMAT_BEGIN
 90
        5
170
     1
 91
        0
 92
        0
 62
   257
 93
        1
300
CONTENTFORMAT
  1
CONTENTFORMAT_BEGIN
 90
        0
 91
        0
 92
        4
 93
        0
300

 40
0.0
140
1.0
 94
        5
 62
     0
340
11
144
0.18
309
CONTENTFORMAT_END
171
     1
301
MARGIN
  1
CELLMARGIN_BEGIN
 40
0.06
 40
0.06
 40
0.06
 40
0.06
 40
0.06
 40
0.06
309
CELLMARGIN_END
 94
        6
 95
        1
302
GRIDFORMAT
  1
GRIDFORMAT_BEGIN
 90
        0
 91
        1
 62
     0
 92
       -2
340
14
 93
        0
 40
0.045
309
GRIDFORMAT_END
 95
        2
302
GRIDFORMAT
  1
GRIDFORMAT_BEGIN
 90
        0
 91
        1
 62
     0
 92
       -2
340
14
 93
        0
 40
0.045
309
GRIDFORMAT_END
 95
        4
302
GRIDFORMAT
  1
GRIDFORMAT_BEGIN
 90
        0
 91
        1
 62
     0
 92
       -2
340
14
 93
        0
 40
0.045
309
GRIDFORMAT_END
 95
        8
302
GRIDFORMAT
  1
GRIDFORMAT_BEGIN
 90
        0
 91
        1
 62
     0
 92
       -2
340
14
 93
        0
 40
0.045
309
GRIDFORMAT_END
 95
       16
302
GRIDFORMAT
  1
GRIDFORMAT_BEGIN
 90
        0
 91
        1
 62
     0
 92
       -2
340
14
 93
        0
 40
0.045
309
GRIDFORMAT_END
 95
       32
302
GRIDFORMAT
  1
GRIDFORMAT_BEGIN
 90
        0
 91
        1
 62
     0
 92
       -2
340
14
 93
        0
 40
0.045
309
GRIDFORMAT_END
309
TABLEFORMAT_END
  1
CELLSTYLE_BEGIN
 90
        2
 91
        1
300
_HEADER
309
CELLSTYLE_END
300
CELLSTYLE
  1
TABLEFORMAT_BEGIN
 90
        5
170
     1
 91
        0
 92
        0
 62
   257
 93
        1
300
CONTENTFORMAT
  1
CONTENTFORMAT_BEGIN
 90
        0
 91
        0
 92
        4
 93
        0
300

 40
0.0
140
1.0
 94
        2
 62
     0
340
11
144
0.18
309
CONTENTFORMAT_END
171
     1
301
MARGIN
  1
CELLMARGIN_BEGIN
 40
0.06
 40
0.06
 40
0.06
 40
0.06
 40
0.06
 40
0.06
309
CELLMARGIN_END
 94
        6
 95
        1
302
GRIDFORMAT
  1
GRIDFORMAT_BEGIN
 90
        0
 91
        1
 62
     0
 92
       -2
340
14
 93
        0
 40
0.045
309
GRIDFORMAT_END
 95
        2
302
GRIDFORMAT
  1
GRIDFORMAT_BEGIN
 90
        0
 91
        1
 62
     0
 92
       -2
340
14
 93
        0
 40
0.045
309
GRIDFORMAT_END
 95
        4
302
GRIDFORMAT
  1
GRIDFORMAT_BEGIN
 90
        0
 91
        1
 62
     0
 92
       -2
340
14
 93
        0
 40
0.045
309
GRIDFORMAT_END
 95
        8
302
GRIDFORMAT
  1
GRIDFORMAT_BEGIN
 90
        0
 91
        1
 62
     0
 92
       -2
340
14
 93
        0
 40
0.045
309
GRIDFORMAT_END
 95
       16
302
GRIDFORMAT
  1
GRIDFORMAT_BEGIN
 90
        0
 91
        1
 62
     0
 92
       -2
340
14
 93
        0
 40
0.045
309
GRIDFORMAT_END
 95
       32
302
GRIDFORMAT
  1
GRIDFORMAT_BEGIN
 90
        0
 91
        1
 62
     0
 92
       -2
340
14
 93
        0
 40
0.045
309
GRIDFORMAT_END
309
TABLEFORMAT_END
  1
CELLSTYLE_BEGIN
 90
        3
 91
        2
300
_DATA
309
CELLSTYLE_END
  0
ENDSEC
  0
EOF
